<svg width="502" height="408" viewBox="0 0 502 408" fill="none" xmlns="http://www.w3.org/2000/svg">
<path opacity="0.18" d="M206.825 59.0057C177.34 83.5487 153.579 114.85 122.218 137.056C93.2113 157.516 58.1978 169.78 33.2386 194.985C11.922 216.502 -0.0237315 245.554 3.53967e-05 275.821C0.0238023 306.088 12.0151 335.121 33.3655 356.605C63.2179 386.64 107.355 397.961 149.673 400.185C191.991 402.41 234.422 396.877 276.74 399.144C316.787 401.298 356.609 410.408 396.6 407.395C436.592 404.382 478.938 385.555 494.731 348.762C512.217 308.04 492.179 262.221 478.36 220.133C467.928 188.309 461.043 155.433 457.828 122.102C453.034 72.2417 444.206 3.00601 381.371 0.246157C318.959 -2.5841 254.671 19.1145 206.825 59.0057Z" fill="#126AFB"/>
<path d="M377.983 327.561C380.508 328.851 380.879 332.555 379.451 334.984C378.024 337.413 375.335 338.867 372.824 340.061C366.781 342.865 360.436 344.969 353.915 346.332C350.965 346.963 347.054 348.637 347.795 351.574C348.33 353.92 351.363 354.483 353.764 354.524C389.441 355.073 424.72 345.495 460.383 346.291C462.743 346.291 465.364 346.552 466.983 348.281C469.028 350.462 468.479 353.975 467.326 356.733C460.959 372.047 442.627 378.016 426.243 380.664C388.933 386.716 350.869 384.987 313.079 384.561C237.814 383.738 162.344 388.17 87.3539 381.611C85.7658 381.614 84.2079 381.177 82.8531 380.349C81.5166 379.164 80.6945 377.505 80.5616 375.724C79.2855 366.599 86.5855 358.023 95.1754 354.689C103.765 351.354 113.302 351.944 122.496 352.617C161.452 355.361 200.573 357.694 239.516 354.757C265.021 353.053 290.249 348.45 314.712 341.036C325.95 337.536 337.325 330.648 348.811 328.549C352.351 327.904 355.946 328.343 359.514 328.164C364.7 327.904 373.153 325.104 377.983 327.561Z" fill="url(#paint0_linear)"/>
<path d="M12.9961 262C13.1333 266.597 15.3974 270.823 17.6615 274.83C27.9667 293.011 39.493 310.905 55.4104 324.407C78.8474 344.235 109.543 352.77 139.182 360.784C136.52 359.494 133.337 345.841 132.157 342.836C129.865 336.949 127.725 331.007 125.515 325.107C122.044 315.762 114.716 308.243 107.677 301.368C91.5451 285.856 71.9769 274.375 50.5666 267.859C38.3813 264.148 25.7329 262.175 12.9961 262V262Z" fill="#126AFB"/>
<path d="M12.9961 262C13.1333 266.597 15.3974 270.823 17.6615 274.83C27.9667 293.011 39.493 310.905 55.4104 324.407C78.8474 344.235 109.543 352.77 139.182 360.784C136.52 359.494 133.337 345.841 132.157 342.836C129.865 336.949 127.725 331.007 125.515 325.107C122.044 315.762 114.716 308.243 107.677 301.368C91.5451 285.856 71.9769 274.375 50.5666 267.859C38.3813 264.148 25.7329 262.175 12.9961 262V262Z" fill="#1EB9D7"/>
<path d="M128.959 272.152C126.544 255.246 124.06 238.108 117.254 222.437C110.448 206.767 98.6607 192.565 82.6473 186.555L81.2751 259.212C81.0007 273.195 80.7674 287.452 84.7742 300.858C91.8273 324.35 116.252 351.917 139.799 359.684C143.284 348.39 137.425 331.307 135.682 319.588L128.959 272.152Z" fill="#126AFB"/>
<path d="M420.891 250.336C420.768 254.919 418.49 259.159 416.226 263.152C405.948 281.334 394.408 299.241 378.463 312.729C355.026 332.557 324.344 341.106 294.76 349.106C297.408 347.816 300.592 334.163 301.772 331.158C304.063 325.271 306.204 319.343 308.413 313.429C311.885 304.085 319.212 296.579 326.334 289.704C342.434 274.193 361.976 262.711 383.362 256.195C395.53 252.472 408.167 250.499 420.891 250.336V250.336Z" fill="#126AFB"/>
<path d="M420.891 250.336C420.768 254.919 418.49 259.159 416.226 263.152C405.948 281.334 394.408 299.241 378.463 312.729C355.026 332.557 324.344 341.106 294.76 349.106C297.408 347.816 300.592 334.163 301.772 331.158C304.063 325.271 306.204 319.343 308.413 313.429C311.885 304.085 319.212 296.579 326.334 289.704C342.434 274.193 361.976 262.711 383.362 256.195C395.53 252.472 408.167 250.499 420.891 250.336V250.336Z" fill="#1EB9D7"/>
<path d="M304.929 260.501C307.344 243.596 309.828 226.444 316.634 210.787C323.44 195.13 335.227 180.846 351.241 174.891C351.707 199.114 352.165 223.329 352.613 247.534C352.874 261.531 353.121 275.788 349.1 289.194C342.061 312.686 317.622 340.253 294.089 348.006C290.59 336.726 296.449 319.629 298.123 307.911L304.929 260.501Z" fill="#126AFB"/>
<path d="M280.545 23.868L153.521 36.3686C140.403 37.6585 129.755 48.7183 129.755 60.9994V345.797C129.755 358.147 140.403 367.038 153.521 365.749L280.545 353.248C293.676 351.958 304.325 340.898 304.325 328.631V43.8333C304.325 31.5111 293.676 22.5781 280.545 23.868ZM292.194 329.235C292.194 336.823 285.635 343.615 277.553 344.411L154.125 356.555C146.029 357.351 139.47 351.848 139.47 344.205V60.1623C139.47 52.5741 146.029 45.7818 154.125 44.9859L172.622 43.1609V44.8487C172.622 49.7063 176.821 53.2328 181.994 52.7251L250.26 46.0974C252.736 45.888 255.051 44.788 256.777 43.0015C258.503 41.215 259.522 38.8633 259.646 36.3823V34.7631L277.485 33.0067C285.567 32.2109 292.126 37.7133 292.126 45.3564L292.194 329.235Z" fill="#126AFB"/>
<path d="M286.527 29.124L159.49 41.6246C146.372 42.9145 135.724 53.9743 135.724 66.324V351.053C135.724 363.403 146.372 372.294 159.49 371.005L286.527 358.518C299.645 357.228 310.293 346.168 310.293 333.887V49.0893C310.293 36.7808 299.659 27.9028 286.527 29.124ZM298.177 334.491C298.177 342.079 291.618 348.871 283.522 349.667L160.025 361.811C151.929 362.607 145.37 357.104 145.37 349.461V65.4184C145.37 57.8302 151.929 51.0241 160.025 50.2282L178.591 48.4856V50.1596C178.591 55.0172 182.79 58.5437 187.963 58.036L256.243 51.326C258.711 51.1082 261.018 50.007 262.74 48.2248C264.462 46.4426 265.482 44.0991 265.615 41.6246V39.9643L283.522 38.1942C291.618 37.3983 298.177 42.9145 298.177 50.5438V334.491Z" fill="white"/>
<path d="M298.177 50.5021V334.545C298.177 342.133 291.618 348.925 283.522 349.721L160.025 361.865C151.929 362.661 145.37 357.159 145.37 349.515V65.4726C145.37 57.8844 151.929 51.0784 160.025 50.2825L178.591 48.485V50.159C178.591 55.0166 182.79 58.5431 187.963 58.0354L256.243 51.3254C258.711 51.1076 261.018 50.0064 262.74 48.2242C264.462 46.442 265.482 44.0985 265.615 41.624V39.9637L283.522 38.1935C291.618 37.3977 298.177 42.9139 298.177 50.5021Z" stroke="url(#paint1_linear)" stroke-width="0.665309" stroke-miterlimit="10"/>
<path d="M298.177 50.5021V334.545C298.177 342.133 291.618 348.925 283.522 349.721L160.025 361.865C151.929 362.661 145.37 357.159 145.37 349.515V65.4726C145.37 57.8844 151.929 51.0784 160.025 50.2825L178.591 48.485V50.159C178.591 55.0166 182.79 58.5431 187.963 58.0354L256.243 51.3254C258.711 51.1076 261.018 50.0064 262.74 48.2242C264.462 46.442 265.482 44.0985 265.615 41.624V39.9637L283.522 38.1935C291.618 37.3977 298.177 42.9139 298.177 50.5021Z" fill="#126AFB"/>
<path d="M256.022 320.016L194 325.958C193.125 326.03 192.246 325.92 191.416 325.635C190.587 325.35 189.826 324.895 189.181 324.301C188.536 323.706 188.022 322.984 187.67 322.181C187.319 321.377 187.138 320.509 187.139 319.632V304.113C187.138 302.516 187.732 300.977 188.806 299.794C189.879 298.612 191.354 297.872 192.943 297.718L254.938 291.777C255.819 291.693 256.708 291.794 257.547 292.073C258.386 292.353 259.158 292.805 259.812 293.401C260.466 293.997 260.988 294.723 261.344 295.533C261.701 296.343 261.884 297.218 261.882 298.103V313.622C261.878 315.226 261.275 316.772 260.191 317.955C259.107 319.137 257.62 319.873 256.022 320.016V320.016Z" fill="url(#paint2_linear)"/>
<path d="M231.406 47.6341L207.941 49.9393V47.9908L231.406 45.6855V47.6341Z" fill="url(#paint3_linear)"/>
<path d="M238.768 47.7597C240.017 47.0292 240.503 45.5354 239.853 44.4231C239.203 43.3109 237.663 43.0015 236.413 43.732C235.163 44.4625 234.677 45.9563 235.328 47.0685C235.978 48.1808 237.518 48.4902 238.768 47.7597Z" fill="url(#paint4_linear)"/>
<path d="M176.162 265.443L265.643 256.867C268.66 256.595 271.464 255.197 273.498 252.952C275.532 250.707 276.646 247.779 276.62 244.75V143.798C276.606 141.963 276.213 140.151 275.466 138.475C274.719 136.798 273.634 135.294 272.279 134.057C270.924 132.819 269.328 131.874 267.591 131.281C265.854 130.689 264.014 130.461 262.185 130.612L172.705 139.188C169.689 139.457 166.885 140.851 164.851 143.094C162.816 145.337 161.701 148.263 161.727 151.291V252.256C161.742 254.091 162.135 255.904 162.882 257.58C163.629 259.256 164.714 260.76 166.069 261.998C167.424 263.236 169.019 264.18 170.756 264.773C172.493 265.366 174.333 265.594 176.162 265.443V265.443Z" fill="#C9D9DF"/>
<path d="M181.445 266.869L270.925 258.292C273.941 258.024 276.745 256.629 278.779 254.386C280.813 252.144 281.928 249.217 281.903 246.19V145.224C281.888 143.389 281.495 141.577 280.748 139.9C280.001 138.224 278.916 136.72 277.561 135.482C276.206 134.245 274.61 133.3 272.873 132.707C271.137 132.114 269.296 131.886 267.467 132.037L177.987 140.614C174.97 140.886 172.166 142.283 170.132 144.528C168.098 146.773 166.983 149.701 167.009 152.73V253.682C167.024 255.517 167.417 257.329 168.164 259.006C168.911 260.682 169.996 262.186 171.351 263.424C172.706 264.661 174.302 265.606 176.038 266.199C177.775 266.792 179.616 267.02 181.445 266.869V266.869Z" fill="url(#paint5_linear)"/>
<path d="M184.891 159.113L217 156.533V188.766L184.891 191.346V159.113ZM211.676 183.812V162.379L190.215 164.108V185.665L211.676 183.812Z" fill="#473F47"/>
<path d="M238.651 154.763L270.733 152.184V184.444L238.651 187.078V154.763ZM265.423 179.545V157.988L243.948 159.717V181.274L265.423 179.545Z" fill="#473F47"/>
<path d="M217 242.719L184.891 245.298V213.148L217 210.568V242.719ZM190.187 239.522L211.703 237.847V216.304L190.187 218.033V239.522Z" fill="#473F47"/>
<path d="M227.77 161.006L233.122 160.58V171.297L227.811 171.723V177.074L222.528 177.499V156.093L227.77 155.668V161.006Z" fill="#473F47"/>
<path d="M270.748 200.635L260.127 201.485V196.134L249.396 196.984V191.702L270.748 189.986V200.635Z" fill="#473F47"/>
<path d="M265.437 222.754V228.051L270.734 227.625V238.342L260.154 239.193V223.22L265.437 222.754Z" fill="#473F47"/>
<path d="M195.538 196.021V201.332L200.862 200.906V206.285L184.903 207.575V196.927L195.538 196.021Z" fill="#473F47"/>
<path d="M227.812 193.388L243.84 192.098V202.814L233.164 203.679V198.19L227.812 198.616V193.264V193.388Z" fill="#473F47"/>
<path d="M238.651 208.675L243.962 208.249V202.925L254.61 202.061V212.709L238.651 213.985V208.675Z" fill="#473F47"/>
<path d="M233.164 203.68V214.396L222.488 215.261V204.544L233.219 203.68H233.164Z" fill="#473F47"/>
<path d="M233.149 230.782L236.031 230.494L243.07 229.932H243.866V240.594L233.218 241.458V231.578C233.218 231.318 233.218 231.071 233.218 230.81L233.149 230.782Z" fill="#473F47"/>
<path d="M222.488 204.543L211.799 205.394V200.07L217.082 199.644V194.252L222.474 193.812V204.584L222.488 204.543Z" fill="#473F47"/>
<path d="M270.747 216.799L265.491 217.224V211.886L260.167 212.312V207.001L270.747 206.15V216.799Z" fill="#473F47"/>
<path d="M227.852 231.166V225.677L222.528 226.102V220.833L233.149 219.982V230.754C232.326 230.754 231.516 230.754 230.707 230.864C229.897 230.974 228.785 231.056 227.825 231.152L227.852 231.166Z" fill="#473F47"/>
<path d="M227.866 188.021V177.25L233.122 176.824V187.582L227.839 188.008L227.866 188.021Z" fill="#473F47"/>
<path d="M227.84 231.15V240.962V241.84L222.557 242.265V231.603L227.894 231.164L227.84 231.15Z" fill="#473F47"/>
<path d="M211.621 194.732V199.988L201.041 200.839V195.583L211.621 194.732Z" fill="#473F47"/>
<path d="M249.396 223.905V218.636L259.99 217.785V223.013L249.396 223.905Z" fill="#473F47"/>
<path d="M249.396 240.099V229.478L254.611 229.053V239.673L249.396 240.099Z" fill="#473F47"/>
<path d="M222.474 193.814V188.449L227.866 188.01C227.866 189.807 227.866 191.591 227.866 193.389L222.487 193.828L222.474 193.814Z" fill="#473F47"/>
<path d="M238.639 224.769V219.527L243.853 219.115V224.343L238.639 224.769Z" fill="#473F47"/>
<path d="M233.259 219.804V214.521L238.487 214.096V219.337L233.259 219.804Z" fill="#473F47"/>
<path d="M249.232 229.324L244.031 229.749V224.494L249.232 224.068V229.324Z" fill="#473F47"/>
<path d="M206.255 168.197L195.648 169.048V179.669L206.255 178.818V168.197Z" fill="#473F47"/>
<path d="M259.991 174.519V163.871L249.425 164.722V175.37L259.991 174.519Z" fill="#473F47"/>
<path d="M195.62 233.636L206.227 232.785V222.15L195.62 223.001V233.636Z" fill="#473F47"/>
<path d="M206.255 168.197V178.845L195.648 179.696V169.075L206.255 168.197Z" fill="#473F47"/>
<path d="M259.991 174.519L249.425 175.37V164.722L259.991 163.871V174.519Z" fill="#473F47"/>
<path d="M195.62 233.636V223.001L206.227 222.15V232.785L195.62 233.636Z" fill="#473F47"/>
<path d="M259.125 317.956L197.13 323.884C196.25 323.97 195.362 323.871 194.522 323.593C193.683 323.315 192.911 322.864 192.257 322.269C191.603 321.674 191.081 320.949 190.724 320.14C190.367 319.331 190.184 318.456 190.187 317.572V302.052C190.186 300.456 190.78 298.916 191.853 297.734C192.927 296.551 194.402 295.811 195.991 295.658L257.986 289.716C258.867 289.632 259.756 289.733 260.595 290.013C261.434 290.293 262.206 290.745 262.86 291.341C263.514 291.937 264.036 292.663 264.392 293.472C264.749 294.282 264.932 295.157 264.93 296.042V311.562C264.93 313.158 264.336 314.698 263.263 315.88C262.19 317.062 260.715 317.802 259.125 317.956V317.956Z" fill="white"/>
<path d="M341.69 161.703L274.384 130.555L164.197 143.879L166.997 261.448L176.163 265.441L276.607 257.386L281.89 246.189L340.688 166.314L341.69 161.703Z" fill="url(#paint6_linear)"/>
<path d="M339.067 168.909V159.057C339.066 158.73 339.152 158.41 339.316 158.128C339.48 157.846 339.716 157.612 340 157.451L345.489 154.391C346.066 154.062 348.343 155.393 348.343 156.052L346.793 172.957L342.937 175.935L339.081 173.671L339.067 168.909Z" fill="white"/>
<path d="M339.067 168.909V159.057C339.066 158.73 339.152 158.41 339.316 158.128C339.48 157.846 339.716 157.612 340 157.451L345.489 154.391C346.066 154.062 348.343 155.393 348.343 156.052L346.793 172.957L342.937 175.935L339.081 173.671L339.067 168.909Z" fill="url(#paint7_linear)"/>
<path d="M340.687 170.128V160.262C340.685 159.937 340.771 159.618 340.935 159.338C341.099 159.058 341.336 158.827 341.62 158.67L347.108 155.596C347.241 155.523 347.391 155.485 347.542 155.486C347.694 155.488 347.843 155.529 347.974 155.605C348.105 155.681 348.215 155.789 348.291 155.92C348.368 156.051 348.41 156.199 348.412 156.351V174.189L344.556 177.153L340.7 174.903L340.687 170.128Z" fill="white"/>
<path d="M341.689 169.717V161.704L347.933 157.766V171.021L346.561 175.481L343.652 176.441C343.652 176.441 342.101 175.782 342.101 175.577" fill="#126AFB"/>
<path d="M428.961 242.705L428.138 243.817L431.102 201.608L431.692 193.128L431.98 189.012L433.53 192.346C436.439 198.48 442.477 211.31 444.165 214.823C446.1 218.857 432.488 237.848 428.961 242.705Z" fill="white"/>
<path opacity="0.1" d="M428.96 242.705C428.618 241.896 428.49 241.012 428.589 240.139C428.951 238.212 429.781 236.403 431.004 234.87C434.27 230.067 438.359 224.977 440.239 219.405C442.709 212.037 434.613 207.467 431.101 201.567C430.202 200.186 429.668 198.6 429.55 196.956C429.491 196.173 429.663 195.39 430.043 194.702C430.423 194.015 430.996 193.453 431.691 193.087C432.261 192.733 432.881 192.465 433.529 192.291C436.438 198.425 442.476 211.255 444.164 214.767C446.099 218.857 432.486 237.848 428.96 242.705Z" fill="#020202"/>
<path d="M408.857 358.834C407.553 359.431 406.475 360.432 405.784 361.688C405.64 361.967 405.597 362.287 405.66 362.594C405.761 362.821 405.91 363.024 406.097 363.188C406.285 363.351 406.505 363.472 406.744 363.541C410.202 364.913 414.113 364.652 417.722 363.994C421.344 363.106 425.043 362.569 428.768 362.388C429.083 362.439 429.406 362.421 429.714 362.336C430.022 362.25 430.307 362.1 430.552 361.894C430.782 361.55 430.892 361.141 430.867 360.728C431.017 357.489 430.455 354.257 429.221 351.26C429.303 351.452 419.437 351.85 418.586 352.426C417.022 353.51 415.718 354.896 414.044 355.898C412.37 356.899 410.6 357.846 408.857 358.834Z" fill="#282328"/>
<path d="M421.976 288.207C421.909 300.837 422.901 313.45 424.94 325.914C425.269 328.082 425.626 330.237 426.065 332.391C429.304 348.308 429.564 352.356 429.564 352.356H416.556C416.556 352.356 406.951 307.28 403.383 297.016C400.684 289.237 398.579 281.265 397.085 273.167C396.502 269.33 396.977 265.407 398.457 261.819C398.959 260.405 399.676 259.077 400.584 257.881C402.351 255.929 404.564 254.432 407.033 253.518C412.286 251.142 417.968 249.863 423.733 249.758C424.391 249.702 425.05 249.846 425.626 250.17C425.995 250.472 426.286 250.858 426.477 251.295C428.165 254.725 427.849 258.759 427.328 262.547C427.101 264.649 426.64 266.72 425.955 268.722C425.187 270.766 423.979 272.619 423.28 274.691C422.684 276.685 422.334 278.745 422.237 280.824C422.154 283.28 422.031 285.737 421.976 288.207Z" fill="#2F2A2F"/>
<path d="M389.373 278.245C389.647 279.886 389.753 281.55 389.689 283.212C389.634 286.193 389.73 289.174 389.977 292.145C390.704 306.292 392.845 320.385 392.858 334.546C392.858 346.621 392.46 359.245 392.46 359.245C392.46 359.245 402.985 362.483 405.414 360.055L409.462 301.737C410.079 297.332 411.026 292.859 411.342 288.426C411.616 284.571 411.699 281.305 413.139 277.6C414.759 273.483 417.064 269.6 418.312 265.319C419.12 262.578 419.468 259.721 419.342 256.866C419.382 255.991 419.141 255.126 418.656 254.396C418.176 253.9 417.589 253.52 416.94 253.285C409.654 250.046 402.093 246.753 394.121 246.822C393.478 246.768 392.833 246.907 392.268 247.22C391.731 247.664 391.343 248.263 391.157 248.935C388.224 256.674 387.322 265.036 388.536 273.223C388.852 274.993 389.126 276.612 389.373 278.245Z" fill="#473F47"/>
<path d="M350.073 178.844C349.758 176.992 349.799 175.057 349.634 173.177C349.627 172.439 349.428 171.716 349.058 171.078C348.861 170.766 348.562 170.532 348.212 170.414C347.862 170.297 347.482 170.303 347.137 170.433C346.286 170.858 346.259 172.025 346.286 172.972C346.313 173.918 346.066 175.126 345.133 175.304C344.782 175.338 344.428 175.267 344.118 175.098C343.653 174.849 343.252 174.495 342.947 174.064C342.642 173.633 342.442 173.137 342.362 172.615C342.279 171.997 342.362 171.352 342.252 170.735C341.895 168.951 339.59 169.253 338.519 170.186C337.889 170.795 337.377 171.516 337.01 172.313C336.235 173.661 335.666 175.118 335.322 176.635C334.183 182.824 341.648 184.155 344.804 188.107C345.258 188.72 345.763 189.294 346.313 189.822C346.849 190.282 347.496 190.592 348.19 190.722C348.884 190.852 349.6 190.797 350.265 190.563C350.928 190.319 351.513 189.903 351.961 189.358C352.41 188.813 352.705 188.159 352.818 187.462C353.188 185.157 351.514 183.085 350.691 180.889C350.421 180.229 350.214 179.544 350.073 178.844Z" fill="#FFBBAB"/>
<path d="M403.739 162.762C403.868 162.936 403.965 163.131 404.028 163.338C404.123 163.758 404.123 164.194 404.028 164.614C403.471 167.095 403.09 169.613 402.889 172.147C402.782 172.857 402.917 173.582 403.273 174.206C403.839 174.809 404.615 175.172 405.441 175.221C406.643 175.413 407.86 175.496 409.077 175.468C409.557 175.468 410.148 175.468 410.449 175.866C410.551 176.046 410.608 176.249 410.614 176.456C410.671 177.401 410.487 178.346 410.079 179.2C409.829 179.613 409.705 180.09 409.722 180.573C409.818 181.451 411.094 181.369 411.753 181.41C414.25 181.533 416.761 181.547 419.259 181.41C419.69 181.428 420.12 181.338 420.508 181.149C421.18 180.751 421.331 179.859 421.523 179.104C422.374 175.605 425.077 172.888 426.531 169.595C427.28 167.841 427.674 165.955 427.691 164.047C427.707 162.14 427.346 160.248 426.627 158.48C425.937 156.797 424.952 155.249 423.718 153.911C422.593 152.662 420.425 152.402 418.861 152.072C416.117 151.496 413.07 151.331 410.628 152.8C407.883 154.446 406.621 157.822 403.863 159.4C403.383 159.674 402.793 159.949 402.628 160.484C402.585 160.756 402.609 161.034 402.698 161.294C402.786 161.555 402.936 161.79 403.136 161.98C403.314 162.254 403.547 162.487 403.739 162.762Z" fill="#FFBBAB"/>
<path d="M411.383 151.837C411.444 152.262 411.574 152.674 411.767 153.058C412.645 154.883 413.798 154.43 415.376 154.664C417.297 155.007 418.545 157.161 418.943 158.917C419.286 161.047 419.216 163.222 418.737 165.325C419.16 164.977 419.681 164.77 420.228 164.733C420.774 164.696 421.318 164.831 421.784 165.12C422.237 165.435 422.59 165.875 422.799 166.386C423.008 166.898 423.066 167.458 422.964 168.001C422.85 168.547 422.588 169.05 422.205 169.454C421.822 169.859 421.334 170.149 420.796 170.293C420.261 170.43 419.629 170.457 419.3 170.897C419.122 171.213 419.045 171.578 419.081 171.939C419.081 174.272 419.177 176.811 420.659 178.622C422.717 178.416 424.281 176.77 425.818 175.397C428 173.449 430.497 171.857 432.597 169.813C434.822 167.86 436.204 165.12 436.452 162.169C436.521 157.435 432.336 153.785 430.799 149.326C430.524 148.322 430.161 147.344 429.715 146.403C429.304 145.757 428.762 145.205 428.124 144.781C427.486 144.357 426.767 144.071 426.012 143.942C425.257 143.813 424.484 143.843 423.742 144.03C422.999 144.218 422.304 144.559 421.701 145.031C420.595 144.303 419.3 143.915 417.976 143.915C416.652 143.915 415.357 144.303 414.25 145.031C413.237 145.831 412.443 146.875 411.942 148.065C411.44 149.255 411.248 150.553 411.383 151.837Z" fill="#FC682D"/>
<path d="M431.472 203.9C430.905 208.321 430.721 212.784 430.923 217.237C431.046 221.587 431.252 225.91 431.431 230.259C430.594 234.006 429.661 237.752 428.686 241.457C428.068 244.483 427.048 247.413 425.654 250.17C424.951 251.496 424.022 252.689 422.909 253.696C421.814 254.659 420.567 255.433 419.218 255.988C416.05 257.161 412.665 257.629 409.297 257.36C406.923 257.266 404.566 256.907 402.272 256.29V256.29C399.323 255.554 396.585 254.145 394.272 252.173C393.11 251.135 392.095 249.944 391.253 248.633C389.237 245.402 388.019 241.738 387.699 237.944C387.01 231.715 387.814 225.412 390.045 219.556C390.169 219.213 390.306 218.884 390.443 218.541C391.39 216.126 392.337 213.711 393.311 211.296C393.311 211.296 393.311 211.227 393.311 211.2C393.462 210.816 393.613 210.459 393.75 210.088L393.833 209.882L393.298 210.102L392.735 210.308C392.556 210.38 392.373 210.439 392.186 210.486C391.788 210.637 391.363 210.747 390.965 210.857L389.593 211.2C388.811 211.364 388.015 211.515 387.219 211.611L386.135 211.735C376.159 212.613 365.277 208.579 356.935 204.119C354.212 202.734 351.721 200.933 349.552 198.781C349.1 198.301 348.674 197.797 348.276 197.272C347.277 195.957 346.541 194.461 346.108 192.867C345.806 191.902 345.806 190.868 346.108 189.903C346.128 189.865 346.151 189.828 346.177 189.794C346.477 189.133 346.896 188.534 347.412 188.024C348.679 186.634 350.022 185.315 351.432 184.072L351.871 183.687C352.249 183.355 352.694 183.108 353.175 182.96C353.649 182.854 354.14 182.853 354.614 182.957C355.088 183.062 355.534 183.269 355.919 183.564C356.62 184.054 357.273 184.61 357.868 185.224C361.677 188.856 366.195 191.662 371.14 193.466C376.084 195.27 381.348 196.033 386.601 195.708C389.486 195.586 392.319 194.906 394.944 193.704C397.247 192.456 399.386 190.926 401.311 189.149C403.051 187.724 404.709 186.203 406.278 184.593C406.69 184.154 407.115 183.701 407.486 183.221C407.856 182.741 408.09 182.48 408.378 182.109L408.735 181.643C409.047 181.167 409.459 180.765 409.942 180.463V180.463C410.634 180.145 411.391 179.995 412.151 180.024C415.129 179.9 418.367 179.338 421.304 179.406H421.62C421.905 179.417 422.189 179.449 422.47 179.502C423.487 179.662 424.438 180.104 425.215 180.778C426.17 181.697 427.043 182.698 427.822 183.77C429.649 185.771 431.082 188.099 432.048 190.631C433.475 194.83 432.13 199.426 431.472 203.9Z" fill="white"/>
<path d="M434.901 203.448C434.891 208.207 434.529 212.959 433.817 217.664C433.2 221.904 432.445 226.089 431.43 230.261C431.251 225.911 431.046 221.588 430.922 217.239C430.72 212.785 430.904 208.323 431.471 203.901C432.13 199.441 433.474 194.831 432.088 190.55C431.122 188.018 429.689 185.69 427.862 183.689C427.083 182.617 426.21 181.616 425.255 180.697C427.999 182.769 430.167 186.625 431.979 188.93C435.066 192.978 434.874 198.618 434.901 203.448Z" fill="white"/>
<path opacity="0.1" d="M434.901 203.448C434.891 208.207 434.529 212.959 433.817 217.664C433.2 221.904 432.445 226.089 431.43 230.261C431.251 225.911 431.046 221.588 430.922 217.239C430.72 212.785 430.904 208.323 431.471 203.901C432.13 199.441 433.474 194.831 432.088 190.55C431.122 188.018 429.689 185.69 427.862 183.689C427.083 182.617 426.21 181.616 425.255 180.697C427.999 182.769 430.167 186.625 431.979 188.93C435.066 192.978 434.874 198.618 434.901 203.448Z" fill="#020202"/>
<path opacity="0.1" d="M431.472 203.9C430.905 208.321 430.721 212.784 430.923 217.237C431.046 221.587 431.252 225.91 431.431 230.259C430.594 234.006 429.661 237.752 428.686 241.457C428.068 244.483 427.048 247.413 425.654 250.17C424.951 251.496 424.022 252.689 422.909 253.696C421.814 254.659 420.567 255.433 419.218 255.988C416.05 257.161 412.665 257.629 409.297 257.36C406.923 257.266 404.566 256.907 402.272 256.29V256.29C399.323 255.554 396.585 254.145 394.272 252.173C393.11 251.135 392.095 249.944 391.253 248.633C389.237 245.402 388.019 241.738 387.699 237.944C387.01 231.715 387.814 225.412 390.045 219.556C390.169 219.213 390.306 218.884 390.443 218.541C391.527 216.178 392.484 213.76 393.311 211.296C393.311 211.296 393.311 211.227 393.311 211.2C393.421 210.788 393.517 210.404 393.613 210.006C393.512 210.051 393.406 210.083 393.298 210.102L392.735 210.308C392.556 210.38 392.373 210.439 392.186 210.486C391.788 210.637 391.363 210.747 390.965 210.857L389.593 211.2C388.811 211.364 388.015 211.515 387.219 211.611L386.135 211.735C376.022 212.764 365.648 208.812 356.935 204.119C354.212 202.734 351.721 200.933 349.552 198.781C349.1 198.301 348.674 197.797 348.276 197.272C347.277 195.957 346.541 194.461 346.108 192.867C345.806 191.902 345.806 190.868 346.108 189.903C346.128 189.865 346.151 189.828 346.177 189.794C346.477 189.133 346.896 188.534 347.412 188.024C348.679 186.634 350.022 185.315 351.432 184.072L351.871 183.687C352.249 183.355 352.694 183.108 353.175 182.96C353.649 182.854 354.14 182.853 354.614 182.957C355.088 183.062 355.534 183.269 355.919 183.564C356.62 184.054 357.273 184.61 357.868 185.224C361.677 188.856 366.195 191.662 371.14 193.466C376.084 195.27 381.348 196.033 386.601 195.708C389.486 195.586 392.319 194.906 394.944 193.704C397.247 192.456 399.386 190.926 401.311 189.149C403.051 187.724 404.709 186.203 406.278 184.593C406.69 184.154 407.115 183.701 407.486 183.221C407.856 182.741 408.09 182.48 408.378 182.109L408.735 181.643C409.047 181.167 409.459 180.765 409.942 180.463V180.463C410.634 180.145 411.391 179.995 412.151 180.024C415.129 179.9 418.367 179.338 421.304 179.406H421.62C421.905 179.417 422.189 179.449 422.47 179.502C423.467 179.724 424.403 180.159 425.215 180.778C426.17 181.697 427.043 182.698 427.822 183.77C429.649 185.771 431.082 188.099 432.048 190.631C433.475 194.83 432.13 199.426 431.472 203.9Z" fill="#020202"/>
<path d="M384.598 366.504C383.291 367.097 382.212 368.099 381.524 369.358C381.381 369.637 381.337 369.957 381.401 370.264C381.499 370.491 381.648 370.693 381.836 370.854C382.024 371.016 382.245 371.133 382.485 371.197C385.942 372.569 389.853 372.322 393.531 371.664C397.157 370.775 400.861 370.238 404.59 370.058C404.904 370.108 405.224 370.089 405.529 370.004C405.835 369.919 406.118 369.769 406.361 369.564C406.59 369.22 406.701 368.811 406.676 368.398C406.826 365.159 406.264 361.927 405.03 358.93C405.112 359.122 395.246 359.506 394.409 360.096C392.831 361.18 391.527 362.566 389.853 363.568C388.179 364.569 386.34 365.461 384.598 366.504Z" fill="#282328"/>
<path d="M368.077 199.906C361.504 197.559 354.808 195.24 349.566 190.52C348.961 190.087 348.543 189.439 348.399 188.708C348.446 188.257 348.594 187.821 348.831 187.434C349.069 187.047 349.39 186.718 349.772 186.472C350.709 185.526 351.777 184.717 352.941 184.07C353.524 183.746 354.169 183.549 354.833 183.489C355.497 183.43 356.166 183.511 356.797 183.727C357.676 184.171 358.467 184.77 359.13 185.498C363.957 189.841 369.895 192.758 376.282 193.923C382.498 195.295 389.345 195.377 395.315 192.962C398.772 191.59 406.292 182.492 409.654 183.824C413.016 185.155 411.534 191.865 409.901 193.95C406.374 198.437 397.441 200.564 392.062 201.58C384.061 203.164 375.781 202.586 368.077 199.906V199.906Z" fill="white"/>
<path d="M420.411 185.073C421.168 184.717 421.84 184.201 422.38 183.562C422.92 182.923 423.315 182.174 423.54 181.368C421.735 180.997 419.884 180.904 418.051 181.094L412.796 181.354L409.338 181.533C407.183 181.656 407.142 182.603 407.965 184.085C408.35 184.785 409.338 185.347 409.749 186.102C410.161 186.857 410.23 187.666 410.724 188.243C412.096 189.889 412.48 188.956 414.25 187.886C416.02 186.816 418.394 186.171 420.411 185.073Z" fill="white"/>
<path d="M335.199 58.7638L396.879 52.2871L352.777 69.563L335.199 58.7638Z" fill="#126AFB"/>
<path d="M396.879 52.2871L360.119 87.8542L352.777 69.563L396.879 52.2871Z" fill="#126AFB"/>
<path d="M396.879 52.2871L360.119 87.8542L352.777 69.563L396.879 52.2871Z" fill="#0A1F41"/>
<path d="M345.504 89.0755L352.776 69.563L396.879 52.2871L345.504 89.0755Z" fill="#126AFB"/>
<path d="M396.879 52.2871L352.777 65.7894L335.199 58.7638L352.777 69.563L396.879 52.2871Z" fill="#0A1F41"/>
<path d="M238.834 306.598L224.541 297.494V315.685L238.834 306.598Z" fill="#126AFB"/>
<defs>
<linearGradient id="paint0_linear" x1="326.444" y1="170.884" x2="217.094" y2="573.415" gradientUnits="userSpaceOnUse">
<stop offset="0.01"/>
<stop offset="0.13" stop-opacity="0.69"/>
<stop offset="0.25" stop-opacity="0.32"/>
<stop offset="1" stop-opacity="0"/>
</linearGradient>
<linearGradient id="paint1_linear" x1="98.3467" y1="119.574" x2="329.178" y2="302.233" gradientUnits="userSpaceOnUse">
<stop stop-color="white"/>
<stop offset="1" stop-color="#CBCBCB"/>
</linearGradient>
<linearGradient id="paint2_linear" x1="14091.6" y1="7647.07" x2="13676" y2="10682.7" gradientUnits="userSpaceOnUse">
<stop offset="0.01"/>
<stop offset="0.13" stop-opacity="0.69"/>
<stop offset="0.25" stop-opacity="0.32"/>
<stop offset="1" stop-opacity="0"/>
</linearGradient>
<linearGradient id="paint3_linear" x1="1696.38" y1="635.591" x2="1700.76" y2="683.131" gradientUnits="userSpaceOnUse">
<stop stop-color="white"/>
<stop offset="1" stop-color="#CBCBCB"/>
</linearGradient>
<linearGradient id="paint4_linear" x1="780.767" y1="834.62" x2="786.685" y2="872.208" gradientUnits="userSpaceOnUse">
<stop stop-color="white"/>
<stop offset="1" stop-color="#CBCBCB"/>
</linearGradient>
<linearGradient id="paint5_linear" x1="20677.4" y1="17326.7" x2="31245.5" y2="20469" gradientUnits="userSpaceOnUse">
<stop stop-color="white"/>
<stop offset="1" stop-color="#CBCBCB"/>
</linearGradient>
<linearGradient id="paint6_linear" x1="372.372" y1="170.774" x2="221.184" y2="200.468" gradientUnits="userSpaceOnUse">
<stop offset="0.01" stop-color="white"/>
<stop offset="1" stop-color="white" stop-opacity="0"/>
</linearGradient>
<linearGradient id="paint7_linear" x1="2746.66" y1="2871.41" x2="2852.33" y2="2919.39" gradientUnits="userSpaceOnUse">
<stop stop-color="white"/>
<stop offset="1" stop-color="#CBCBCB"/>
</linearGradient>
</defs>
</svg>
