<?xml version="1.0" encoding="utf-8"?>
<!-- Generator: Adobe Illustrator 21.0.0, SVG Export Plug-In . SVG Version: 6.00 Build 0)  -->
<svg version="1.1" id="Слой_2" xmlns="http://www.w3.org/2000/svg" xmlns:xlink="http://www.w3.org/1999/xlink" x="0px" y="0px"
	 viewBox="0 0 179.5 207.8" style="enable-background:new 0 0 179.5 207.8;" xml:space="preserve">
<style type="text/css">
	.st1{fill:#505759;}
</style>
<g>

		<polygon class="st1" points="89.6,125.2 73,135.8 73,147 89.6,136.3 106.2,147 106.2,135.8 		"/>
		<polygon class="st1" points="73,100.2 73,111.3 89.6,121.9 106.2,111.3 106.2,100.2 89.6,110.8 		"/>
		<polygon class="st1" points="114.8,63.7 96.9,72 96.9,91.7 106.2,97.7 106.3,78 124.1,69.6 		"/>
		<polygon class="st1" points="82.3,72 64.5,63.7 55.1,69.6 72.9,78 72.9,97.7 82.3,91.7 		"/>
		<polygon class="st1" points="42.3,116.4 60.1,124.7 69.5,118.7 51.6,110.4 51.6,90.7 42.3,96.7 		"/>
		<polygon class="st1" points="137.1,96.7 127.7,90.7 127.7,110.4 109.9,118.7 119.2,124.7 137.1,116.4 		"/>

</g>
</svg>
