<?xml version="1.0" encoding="utf-8"?>
<!-- Generator: Adobe Illustrator 21.0.0, SVG Export Plug-In . SVG Version: 6.00 Build 0)  -->
<svg version="1.1" xmlns="http://www.w3.org/2000/svg" xmlns:xlink="http://www.w3.org/1999/xlink" x="0px" y="0px"
	 viewBox="0 0 179.5 207.8" style="enable-background:new 0 0 179.5 207.8;" xml:space="preserve">
<style type="text/css">
	.st0{fill:#F8E07A;}
	.st1{fill:#FFF;}
</style>
<g>
	<polygon class="st0" points="68.8,22.5 137.1,62 137.1,52.6 69.1,13 68.8,12.9 0.5,52 0.3,52.2 0.3,62 	"/>
	<polygon class="st0" points="150.2,124.2 158.3,119.5 158.2,40.5 89.6,1.1 81.2,6 149.9,45.3 	"/>
	<polygon class="st0" points="29.5,82.7 21.3,87.4 20.9,166.4 89,206.1 89.2,206.2 97.7,201.3 29.4,161.6 	"/>
	<polygon class="st0" points="77,41.8 68.8,37.1 0.5,76.4 0.3,76.5 0.2,155.5 8.8,160.4 8.7,81.4 	"/>
	<polygon class="st0" points="171,46.4 171.1,125.4 102.8,164.9 110.8,169.6 179.1,130.4 179.4,130.2 179.4,51.5 179.4,51.2 	"/>
	<polygon class="st0" points="42.6,145.2 42.6,154.7 110.8,194 111.1,194.1 179.2,154.6 179.4,154.4 179.4,144.6 111.1,184.4 	"/>
	<g>
		<polygon class="st1" points="89.6,125.2 73,135.8 73,147 89.6,136.3 106.2,147 106.2,135.8 		"/>
		<polygon class="st1" points="73,100.2 73,111.3 89.6,121.9 106.2,111.3 106.2,100.2 89.6,110.8 		"/>
		<polygon class="st1" points="114.8,63.7 96.9,72 96.9,91.7 106.2,97.7 106.3,78 124.1,69.6 		"/>
		<polygon class="st1" points="82.3,72 64.5,63.7 55.1,69.6 72.9,78 72.9,97.7 82.3,91.7 		"/>
		<polygon class="st1" points="42.3,116.4 60.1,124.7 69.5,118.7 51.6,110.4 51.6,90.7 42.3,96.7 		"/>
		<polygon class="st1" points="137.1,96.7 127.7,90.7 127.7,110.4 109.9,118.7 119.2,124.7 137.1,116.4 		"/>
	</g>
</g>
</svg>
