<svg xmlns="http://www.w3.org/2000/svg" xmlns:xlink="http://www.w3.org/1999/xlink" viewBox="0 0 597.08 402.68"><defs><style>.cls-1{fill:#e5e8fa;}.cls-2{fill:#abb9ff;}.cls-3{fill:#8ca0e5;}.cls-4{fill:#ffba89;}.cls-5{fill:#ef4136;}.cls-6{fill:url(#linear-gradient);}.cls-7{fill:#002269;}.cls-8{fill:url(#linear-gradient-2);}.cls-9{fill:#ff9d65;}.cls-10{fill:url(#linear-gradient-3);}.cls-11{fill:url(#linear-gradient-4);}.cls-12{fill:#be1f2d;}.cls-13{fill:url(#linear-gradient-5);}.cls-14{fill:url(#linear-gradient-6);}.cls-15{fill:url(#linear-gradient-7);}.cls-16{fill:#001849;}.cls-17{fill:url(#linear-gradient-8);}.cls-18{fill:url(#linear-gradient-9);}.cls-19{fill:url(#linear-gradient-10);}.cls-20,.cls-23{fill:#fff;}.cls-21{fill:#232020;}.cls-22{fill:#8fa1e5;}.cls-23{font-size:22.97px;font-family:TwCenMT-Regular, Tw Cen MT;}.cls-24{fill:url(#linear-gradient-11);}</style><linearGradient id="linear-gradient" x1="439.4" y1="232.13" x2="462.26" y2="232.13" gradientUnits="userSpaceOnUse"><stop offset="0" stop-color="#f26522"/><stop offset="1" stop-color="#652c91"/></linearGradient><linearGradient id="linear-gradient-2" x1="453.43" y1="230.85" x2="486.4" y2="230.85" gradientUnits="userSpaceOnUse"><stop offset="0" stop-color="#ffb200"/><stop offset="1" stop-color="#ff54de"/></linearGradient><linearGradient id="linear-gradient-3" x1="432.1" y1="225.4" x2="488.31" y2="225.4" xlink:href="#linear-gradient"/><linearGradient id="linear-gradient-4" x1="148.28" y1="273.62" x2="179.95" y2="273.62" xlink:href="#linear-gradient-2"/><linearGradient id="linear-gradient-5" x1="136.16" y1="219.64" x2="156.1" y2="219.64" xlink:href="#linear-gradient-2"/><linearGradient id="linear-gradient-6" x1="117.78" y1="274.64" x2="152.27" y2="274.64" xlink:href="#linear-gradient"/><linearGradient id="linear-gradient-7" x1="119.83" y1="275.06" x2="168.87" y2="275.06" xlink:href="#linear-gradient-2"/><linearGradient id="linear-gradient-8" x1="539.51" y1="245.43" x2="585.92" y2="245.43" xlink:href="#linear-gradient-2"/><linearGradient id="linear-gradient-9" x1="289.88" y1="346.49" x2="303.73" y2="346.49" gradientUnits="userSpaceOnUse"><stop offset="0" stop-color="#272262"/><stop offset="0.4" stop-color="#282971"/><stop offset="1" stop-color="#2b3890"/></linearGradient><linearGradient id="linear-gradient-10" x1="188.86" y1="146.44" x2="411.84" y2="146.44" xlink:href="#linear-gradient-9"/><linearGradient id="linear-gradient-11" x1="38.34" y1="247.56" x2="84.75" y2="247.56" xlink:href="#linear-gradient"/></defs><g id="Layer_2" data-name="Layer 2"><g id="OBJECT"><path class="cls-1" d="M272.77,141.62S165,134.47,130.66,212.05,43.62,251.86,16.93,305s33.89,95.18,33.89,95.18H591.58s3.23-89.92-78.73-105.53-47.74-80.33-89.92-110.16S305.92,140.55,272.77,141.62Z"/><path class="cls-2" d="M221,375.14s-2.83-5.86-10.07-13.41-8.18-23.5,0-24.65,8.5,24,13.53,24-3.77-18.25,4.73-17.94,7.23,18.57,6.92,23.92,6-1.52,6.61-11,6.61-8.28,9.12-5.1-2.2,20.26-3.14,26.67,11.33-9.63,14.16-4-12.39,25.83-21.52,26.46S215,393.36,212.15,389.5s1.89-5.11,10.7-2,6-3.46-2.83-5.67-12.9-6-12.9-10.72S221,375.14,221,375.14Z"/><path class="cls-2" d="M321,399.54h81.82s-1.89-8.89-7.55-11.72-9.44-2.2-9.44-2.2-4.09-8.82-13.53-11.33-16.68,1.88-18.89,6a13.71,13.71,0,0,0-13.06-1.58c-7.23,3-10.07,8.22-9.28,13.39C331.11,392.08,324,390.34,321,399.54Z"/><path class="cls-3" d="M373.58,382.42s-4.23-5.69-.82-11.7a12.81,12.81,0,0,1,9.42-6.46S386.14,376.11,373.58,382.42Z"/><path class="cls-3" d="M379.94,383.55s-.95-4.7,2.87-7.39a8.6,8.6,0,0,1,7.62-1.24S389.44,383.31,379.94,383.55Z"/><path class="cls-3" d="M345.92,385.42s-4.69,1-7.46-2.72a8.63,8.63,0,0,1-1.39-7.6S345.48,375.92,345.92,385.42Z"/><rect class="cls-2" x="412.57" y="327.03" width="114.61" height="72.51" rx="22.6"/><path class="cls-3" d="M242,400.1s-5.91-16.21-2.69-21.56,8,3,8,10.23,2.25-22.33,11.57-23,.19,9,2.51,14.64,14.76-27.17,21.6-23.47-.65,16.64-4.82,21.58,11.89-1.66,12.85,3.88-14.14,5.61-14.78,9.44,9.64,2.69,6.75,8.24Z"/><path class="cls-4" d="M477.26,336.63l1.34,5.44,7.11,45.55h8s-.89-38.44-5.78-52.44Z"/><path class="cls-4" d="M460.38,336.74s-1.56,42.44-4.22,50.88h-8.22l1.33-50.88Z"/><path class="cls-5" d="M447.38,380.9l10.42,1.2s-.88,5.54-1.53,9.53c0,0,.64,7.2.49,8.86,0,0-16.88,1.51-20.3.54s1.27-3.18,5.23-5.49a36.23,36.23,0,0,0,6.12-4.46S447.55,388.23,447.38,380.9Z"/><path class="cls-5" d="M484.09,381.29h10.17a68.23,68.23,0,0,1-.44,10.34s1.59,7,1.44,8.65c0,0-17.83,1.72-21.25.75s1.27-3.18,5.23-5.49a36.23,36.23,0,0,0,6.12-4.46S484.25,388.62,484.09,381.29Z"/><path class="cls-6" d="M460.21,203.13c-5.11.46-18.44,29.35-20.44,39.68s4.67,18.33,4.67,18.33l5.83-5.33-2-12.17,11.94-22S464.82,202.7,460.21,203.13Z"/><polygon class="cls-7" points="423.91 194.25 425.8 214.43 433.27 212.31 431.5 192.76 423.91 194.25"/><path class="cls-8" d="M474.26,198.32s2,0,8.67,4.5,1.67,40.82,1.67,40.82l1.8,19.83h-33l2.84-20.83s-2.34-24.83,0-33.66S472.21,197.66,474.26,198.32Z"/><path class="cls-7" d="M475.76,174.54s0-4.5-3.5-5.61-13.27.17-15.1-.61-2.17,2.72,1.22,4c0,0-3.5.27-2.83,1.66a3.56,3.56,0,0,0,2.61,1.61s.12,2.59,1.23,3.05S473,191.25,473,191.25s6.38-9.82,5.5-13.43S475.76,174.54,475.76,174.54Z"/><path class="cls-9" d="M465.13,193.17a21,21,0,0,1-1.81,10.34c-.89,2,2.5,2,7.17,1.57s7-1.26,6.11-2.8-4.68-14.67-4.68-14.67S465.33,191.54,465.13,193.17Z"/><path class="cls-4" d="M463.27,173.75s-3.5.5-4.17,6.5,1,14,4.17,14,9.33-3.67,9.33-10.25S468.43,172.25,463.27,173.75Z"/><path class="cls-4" d="M471.49,182.54s.77-2.44,2.77-2.44.78,5.5-1.05,6.72-2.33,1.22-2.33,1.22Z"/><path class="cls-10" d="M480.6,202.16,461,235.37l-23.9-21.17-4.95,5.29s18,28.82,31.08,29.15,24.25-34.16,24.25-34.16S491.93,204,480.6,202.16Z"/><path class="cls-4" d="M436.45,215.54l-1.33-1.4s-.12-5.72-1.12-7.09-.78-2.38-1.9-2.44.21,2.25,0,3.88c-.13,1-.35,1.23-.35,1.23s-8.27-2.67-8.71-1.68.25,1.87,1.81,2.61a2.14,2.14,0,0,0,.62,2.93,1.83,1.83,0,0,0,.49,2,1.66,1.66,0,0,0,1,1.39,20.29,20.29,0,0,0,4.48.75l1.3,1.81Z"/><path class="cls-4" d="M449.27,254.53l3.66,10.67-1.83,5.88-6.66-9.94S444.27,255.86,449.27,254.53Z"/><path class="cls-7" d="M486.4,263.47l9.82,127.66-12.54-.83L469.1,285.8l-1.6-.25-9.37,105.58-12-1.31s1.41-109.85,7.59-128.68Z"/><path class="cls-2" d="M107.34,327h54.55a11.18,11.18,0,0,1,11.18,11.18v63.26a0,0,0,0,1,0,0H96.16a0,0,0,0,1,0,0V338.21A11.18,11.18,0,0,1,107.34,327Z"/><path class="cls-11" d="M150.49,252.61l11,31.43,16-9.4,2.47,6.61s-20.11,18.73-24,11.86-7.66-14.67-7.66-14.67Z"/><polygon class="cls-4" points="152.33 380.44 148.55 395.21 140.94 395.21 143.39 378.54 152.33 380.44"/><path class="cls-5" d="M149.61,390.68s9.77,9.11,9.77,11-15.56.48-18.44,0,.76-11.66.76-11.66Z"/><polygon class="cls-5" points="172.87 256.95 167.48 270.7 177.68 267.95 181.23 256.95 172.87 256.95"/><polygon class="cls-4" points="181.9 378.54 184.07 390.05 191.64 389.02 189.57 378.54 181.9 378.54"/><path class="cls-12" d="M183.56,387.32s.63,9.95.63,10.64,7,.69,9.39.46,7.57,1.3,12.84.13-7.69-7.62-15.63-13.83Z"/><path class="cls-9" d="M145.14,240.9s-1.62,6,2.28,9.46-6.47,2.6-11,.83-6.94-3.78-5.26-4.51c4.64-2,9-15.34,9-15.34S145.42,239.22,145.14,240.9Z"/><path class="cls-4" d="M152.51,222.17s3.33,1.49,2.29,7.63-5,13.6-8.11,12.7-8.21-6.29-6.34-12.82S147.82,219.22,152.51,222.17Z"/><path class="cls-4" d="M142,227a2.35,2.35,0,0,0-2.42-2c-2,.18-2.62,7.25.93,6.89S142,227,142,227Z"/><path class="cls-7" d="M149.52,223.11s-.4,3.12-2.49,4.32a6.16,6.16,0,0,1-3.15,1.1s-.5,2-1.25,1.85c0,0,.2-3.31-.65-3.63s-2-.35-2.35,2.68,1.54,3,1.54,3a5.6,5.6,0,0,1-1.4,3.83,11.66,11.66,0,0,1-3.53-13.15S144.88,222.34,149.52,223.11Z"/><path class="cls-7" d="M143.48,223.92s12.72,6.28,17.36,5.5-5.33-5.5-5.33-5.5Z"/><path class="cls-13" d="M155.73,223s1.51-5.59-1.58-7.41-9.14-.67-9.14-.67-9.22-1.52-8.84,8.08c0,0,10.88,3.17,19.41,1.05Z"/><path class="cls-14" d="M133.89,244.32s2.81,7.75,7.36,8.07,4.23-4.83,4.23-4.83a14.17,14.17,0,0,1,6.34,7.9c2.06,5.85-3.54,34.38-3.54,34.38v15l-28.61.17s-3.61-32.83-.86-45.38S130.24,244.68,133.89,244.32Z"/><path class="cls-15" d="M127.61,253.35l14.61,35,23.44-17,3.21,3.31s-17.17,23-29,24.2-18.94-27.05-20-38.05c-.38-4.12.41-6.67,1.55-8.25A3.54,3.54,0,0,1,127.61,253.35Z"/><path class="cls-4" d="M165.48,271.42a55.74,55.74,0,0,1,2.69-5.59c.83-1.2,1.52-3.09,2.64-3.09s-1.81,5.33-1.81,5.33,7.82-.6,9.11-1,.52,1.51-.86,1.93a1.69,1.69,0,0,1-.94,1.72s-.61,1.72-1.55,2A3.09,3.09,0,0,1,172.7,274c-1.55.34-4.53,1.39-4.53,1.39L165,272.08Z"/><path class="cls-16" d="M191.64,380.43s-5.13-58.19-12.15-65.15c-3.57-3.54-9.43-3.69-9.43-3.69h0l-21.61-2.5-.17-5.08-28.61,1s-3.78,14.61,3.1,22.86c5.85,7,37.44,3.33,46.7,2.08,2.22,11.85,4.36,32.8,11.74,50.52Z"/><path class="cls-7" d="M148.28,304l-5.91,9.71s11.63,3.52,19.59,11-8.25,59.47-8.25,59.47l-11.86-1.89s.31-33.18,6.43-43.83c0,0-39.66,3.2-28.61-33.52Z"/><path class="cls-4" d="M187.63,271.74c.23-1.61-.75-1.63-.75-1.63.16-1.3-.26-1.75-.66-1.89a4.58,4.58,0,0,0,.43-1.81c-.06-1.55-3-1.43-3.38-.57s1.32,1,2.12.74c0,0-1,1.45-4.43,3.87h0l-.19.05c.19-1.32.43-3.8-.36-4.38-1.09-.8-.75,1.55-1,3.15-.25,1.37-.82,2.49-.52,3.86l-1.06,2.36,1.89,5.06s5.41-3.26,6.05-3.89a21.11,21.11,0,0,0,1.66-2.12A3.25,3.25,0,0,0,187.63,271.74Z"/><path class="cls-4" d="M535.61,353.19l18.32,35.3,7.06-3.67s-8.88-31.24-15.76-36.63S535.61,353.19,535.61,353.19Z"/><path class="cls-16" d="M554,388s-5.75,9.37-6.89,11.74,3.09,1.8,8.1-1.39S566,393,566,391.07s-5.52-7.89-5.52-7.89Z"/><path class="cls-4" d="M568.7,198.75s-.06-3.19,2.41-3.31a3.94,3.94,0,0,1,3.56,1.84s-.06,2.8-.54,3.34-2.29,2.35-2.29,2.35l-1.93.55a5.74,5.74,0,0,1-2.54,0c-.78-.37-1.5-.79-1.5-.79Z"/><path class="cls-4" d="M563.64,352.13V391.9h8s6.51-31.82,2.89-39.77S563.64,352.13,563.64,352.13Z"/><path class="cls-7" d="M564,391.47s-10.57,4.68-12.68,6.26,3.07,4,9,3.48,12,.27,12.9-1.45-1.47-8.45-1.47-8.45Z"/><polygon class="cls-5" points="522.24 203.52 528.91 215.17 523.04 218.62 516.49 206.87 522.24 203.52"/><path class="cls-4" d="M523.69,218.62s9.14,10.45,14.34,21.1l10.4-20.53,4,12.55s-7.57,14-11.29,17.75c-2.62,2.62-6.81-.2-10-5.86-3.43-6.19-10-22.53-10-22.53Z"/><path class="cls-17" d="M572.45,214.28s12.09,5.11,12.09,12.67-6.87,21.54-6.87,21.54a91.49,91.49,0,0,1,8.25,25.44,88.31,88.31,0,0,1-25.67,3.21c-14.9-.23-20.74-5.21-20.74-5.21,3-16.41,12.72-31.69,12.72-31.69a47.79,47.79,0,0,1-5-16.73c-.69-8.71,11.27-9.81,11.27-9.81Z"/><path class="cls-9" d="M561.72,206.88s-.1,6.23-4.79,8.46,5.5,4.29,10.31,3.82,7.22-1.3,6.3-2.89-6.76-12.75-6.76-12.75S561.92,205.19,561.72,206.88Z"/><path class="cls-4" d="M559.79,186.85s-3.61.51-4.3,6.7,1,14.44,4.3,14.44,9.63-3.78,9.63-10.57S565.12,185.3,559.79,186.85Z"/><path class="cls-4" d="M521.5,221.87s-3.35-7.64-3.47-8.33a4.66,4.66,0,0,1,1.74-3.66c1.36-1,2.27-1.72,2.45-1s-2.47,2.75-2.47,2.75l.37.63s3.87-2.12,4.73-1.77-3,2.35-3,2.35,3.44-1.61,3.78-.81-3.38,2.12-3.38,2.12,3.2,0,3.41.52-2.72.9-2.72.9,1.3,2.43,1.11,4.06S521.5,221.87,521.5,221.87Z"/><path class="cls-7" d="M544.12,256.49c-21.42,40.2-8.14,68-21.42,84.56-8,10-3.75,16.53,8.51,14s17.56,5.47,26.65,5.8,11-5.15,18.72-4.5,16.07.32,19.93-5.15-13.22-26.77-9.25-44.35c5.55-24.59-6.1-50.32-6.1-50.32C557.33,262.38,544.12,256.49,544.12,256.49Z"/><path class="cls-4" d="M580.83,219.23,561,243.65l-21-22.63-2.41,4s14.78,27.07,23.7,27c6.66-.08,17.09-13.59,21.94-20.42A8.63,8.63,0,0,0,581,219.32Z"/><path class="cls-4" d="M540.18,221.71s-2.06-5.93-3.18-7a5.69,5.69,0,0,0-4.06-1.28c-.6.18,1.41,1.52,2.68,1.73,0,0-3.62.46-3.62,1.54s.74.85.74.85-1.34,1.09-.34,1.76a1.72,1.72,0,0,0,.47,2.42c1.41,1.2,1.48.33,1.48.33s1.74,3.36,3.82,3.69S540.18,221.71,540.18,221.71Z"/><path class="cls-7" d="M558,184.11s-4.46,1.57-4.7,5.54,5.54,2.41,5.54,2.41a5.31,5.31,0,0,0,3.5,2.05,6.5,6.5,0,0,0,4.58-1s.36,4.46,1.8,4.94.37-2.17,3-2.05,1.93,5.3-.61,6.27a8.8,8.8,0,0,1-3.51.84l-1.12,1.4a4.65,4.65,0,0,0,5.6,3.44c4.7-.74,4.58-3.39,6.75-2.67s5.78.48,6-.84,2.41.84,5-1.57,2-4,0-4.58-2.7-3.37-3.94-4.46-5.47-.84-5.47-.84a2.79,2.79,0,0,0-2-3.14c-2.54-1-2.51-4.21-6-4.7C572.45,185.19,565.51,179.41,558,184.11Z"/><rect class="cls-18" x="289.88" y="292.88" width="13.85" height="107.21"/><rect class="cls-19" x="188.86" width="222.97" height="292.88" rx="13.75"/><rect class="cls-2" x="200.51" y="11.75" width="198.89" height="269.39" rx="11"/><rect class="cls-20" x="221.39" y="52.28" width="154.72" height="162.37" rx="13.9"/><path class="cls-21" d="M235.09,68.43v34.68h35.67V68.43Zm31.13,31H239.35V72.13h26.87Z"/><rect class="cls-21" x="243.93" y="75.69" width="18" height="20.16"/><polygon class="cls-21" points="277.62 125.8 277.62 118.92 285.3 118.92 285.3 110.95 276.78 110.95 276.78 118.26 260.58 118.26 260.58 124.37 255.19 124.37 255.19 112.68 239.63 112.68 239.63 126.23 254.35 126.23 254.35 132.34 263.04 132.34 263.04 126.23 277.62 126.23 277.62 133.77 286.14 133.77 286.14 125.8 277.62 125.8"/><polygon class="cls-21" points="287.24 105.5 287.24 94.34 297.44 94.34 297.44 82.52 287.24 82.52 287.24 70.69 275.94 70.69 275.94 82.52 286.14 82.52 286.14 89.94 275.94 89.94 275.94 106.83 287.24 106.83 287.24 111.62 307.29 111.62 307.29 105.5 287.24 105.5"/><rect class="cls-21" x="258.8" y="144.04" width="32.99" height="6.11"/><rect class="cls-21" x="294.54" y="98.39" width="5.31" height="4.73"/><rect class="cls-21" x="290.13" y="74.24" width="5.31" height="4.73"/><path class="cls-21" d="M326.49,68.43v34.68h35.67V68.43Zm4.54,3.7H357.9V99.42H331Z"/><rect class="cls-21" x="335.33" y="75.69" width="18" height="20.16" transform="translate(688.65 171.55) rotate(180)"/><polygon class="cls-21" points="319.18 125.8 319.18 118.92 311.91 118.92 311.91 110.95 319.98 110.95 319.98 118.26 335.33 118.26 335.33 124.37 340.44 124.37 340.44 112.68 355.19 112.68 355.19 126.23 341.24 126.23 341.24 132.34 333 132.34 333 126.23 319.18 126.23 319.18 133.77 311.11 133.77 311.11 125.8 319.18 125.8"/><polygon class="cls-21" points="310.01 105.5 310.01 94.34 299.81 94.34 299.81 82.52 310.01 82.52 310.01 70.69 321.31 70.69 321.31 82.52 311.11 82.52 311.11 89.94 321.31 89.94 321.31 106.83 310.01 106.83 310.01 111.62 289.96 111.62 289.96 105.5 310.01 105.5"/><rect class="cls-21" x="297.39" y="98.39" width="5.31" height="4.73" transform="translate(600.09 201.5) rotate(180)"/><rect class="cls-21" x="301.81" y="74.24" width="5.31" height="4.73" transform="translate(608.93 153.21) rotate(180)"/><rect class="cls-21" x="262.03" y="135.52" width="5.31" height="4.73"/><rect class="cls-21" x="253.49" y="139.97" width="5.31" height="4.73"/><rect class="cls-21" x="253.82" y="149.73" width="5.31" height="4.73"/><rect class="cls-21" x="273.71" y="135.52" width="5.31" height="4.73" transform="translate(552.73 275.76) rotate(180)"/><path class="cls-21" d="M362.59,198.63V164H326.92v34.67Zm-31.14-31h26.87v27.29H331.45Z"/><rect class="cls-21" x="335.75" y="171.21" width="18" height="20.16" transform="translate(689.51 362.59) rotate(180)"/><path class="cls-21" d="M270.76,198.63V164H235.09v34.67Zm-31.14-31h26.87v27.29H239.62Z"/><rect class="cls-21" x="243.93" y="171.21" width="18" height="20.16" transform="translate(505.85 362.59) rotate(180)"/><polygon class="cls-21" points="319.18 141.74 319.18 148.62 311.91 148.62 311.91 156.59 319.98 156.59 319.98 149.28 335.33 149.28 335.33 143.17 340.44 143.17 340.44 154.86 355.19 154.86 355.19 141.31 341.24 141.31 341.24 135.2 333 135.2 333 141.31 319.18 141.31 319.18 133.77 311.11 133.77 311.11 141.74 319.18 141.74"/><polygon class="cls-21" points="310.44 161.56 310.44 172.72 300.24 172.72 300.24 184.55 310.44 184.55 310.44 196.38 321.73 196.38 321.73 184.55 311.54 184.55 311.54 177.13 321.73 177.13 321.73 160.24 310.44 160.24 310.44 155.45 290.38 155.45 290.38 161.56 310.44 161.56"/><rect class="cls-21" x="297.82" y="163.96" width="5.31" height="4.73" transform="translate(600.95 332.64) rotate(180)"/><rect class="cls-21" x="302.24" y="188.1" width="5.31" height="4.73" transform="translate(609.79 380.92) rotate(180)"/><rect class="cls-21" x="290.39" y="119.56" width="7.54" height="25.15"/><rect class="cls-21" x="303.13" y="142.57" width="5.89" height="8.77"/><rect class="cls-21" x="300.47" y="117.59" width="7.08" height="16.18"/><rect class="cls-21" x="305.49" y="117.59" width="7.08" height="7.16"/><polygon class="cls-21" points="285.84 180.12 285.84 167.19 291.99 167.19 291.99 160.39 286.39 160.39 286.39 154.98 280.37 154.98 280.37 160.94 285.28 160.94 285.28 166.51 279.49 166.51 279.49 159.72 272.77 159.72 272.77 166.51 279.12 166.51 279.12 178.15 273.97 178.15 273.97 185.09 279.12 185.09 279.12 196.84 290.54 196.84 290.54 184.42 280.69 184.42 280.69 180.12 285.84 180.12"/><rect class="cls-21" x="306.08" y="133.3" width="3.84" height="4.58"/><rect class="cls-21" x="240.32" y="130.34" width="7.22" height="27.38"/><rect class="cls-22" x="270.76" y="225.31" width="53.1" height="25.24" rx="5.67"/><text class="cls-23" transform="translate(277.56 242.88)">scan</text><polygon class="cls-7" points="102.01 205.66 95.35 217.31 101.22 220.76 107.77 209.01 102.01 205.66"/><polygon class="cls-4" points="41.09 226.97 28.54 251.72 33.87 257.4 45.04 239.52 41.09 226.97"/><path class="cls-7" d="M19.78,256.42c.8-1.37,4-10.07,11.34-9.79s5.67,23.54,5.67,23.54H33.93s.86-11-.75-15.35-6-4-7.45-2.41-5.95,12.49-5.95,12.49L17,263.18Z"/><path class="cls-4" d="M15.88,223.21s18,25.61,18,34c0,0-7.74,1.55-11.18-4.64s-8.93-23.72-8.93-23.72Z"/><path class="cls-4" d="M100.56,220.76s-9.14,10.45-14.33,21.1L75.82,221.33l-3.95,12.55s7.57,14,11.29,17.75c2.62,2.61,6.8-.2,10-5.87,3.44-6.18,10-22.52,10-22.52Z"/><path class="cls-4" d="M15.28,229.75s-8-4-8.76-4.74-5.2-.55-5.43-1.44,3.37-.65,5.31-.14c0,0-6.4-3.13-6.4-4s6.14,2.32,6.39,2.5A40.43,40.43,0,0,0,2,217.77c-1.87-1.44.1-1.51,2.1-.33a15.53,15.53,0,0,1,3.49,2.94s-2.6-4.07-3.07-5.2,1.19-.22,2.28,1.26,3.05,3.71,3.05,3.71l4.26.89s.47-3.79,1.46-3.94-.15,2.57.56,4.17S16.72,227.88,15.28,229.75Z"/><path class="cls-7" d="M38.43,275.54l14.69,95.82h8.42V342.48l3.61-47.78,21.66,74.94,7.56-1L90.94,339s-1.65-54.34-7.68-70Z"/><path class="cls-24" d="M48.42,218.21s-8.71,3.31-8.71,10.88,6.88,21.54,6.88,21.54a91.49,91.49,0,0,0-8.25,25.44A88.31,88.31,0,0,0,64,279.28c14.89-.23,20.74-5.21,20.74-5.21C81.74,257.66,72,242.38,72,242.38a48,48,0,0,0,5-16.73c.69-8.71-11.27-9.81-11.27-9.81Z"/><path class="cls-9" d="M62.54,209s.09,6.23,4.79,8.46-5.5,4.29-10.31,3.82-7.22-1.3-6.31-2.89,6.77-12.75,6.77-12.75S62.34,207.33,62.54,209Z"/><path class="cls-4" d="M64.47,189s3.61.52,4.29,6.71-1,14.44-4.29,14.44-9.63-3.78-9.63-10.57S59.14,187.44,64.47,189Z"/><path class="cls-7" d="M53.92,188.72a6.94,6.94,0,0,0-6.07,4.1c-1.83,4.13,3,8.6,3,8.6s-10.14-2.06-9.92,4.81c0,0-7.56,3-1.83,7.68,0,0-1.37,3.21,1.15,4.81s5.17-.8,5.17-.8,1.47,3.67,5.25,3.44,4.93-7,4.93-7a5.7,5.7,0,0,0,2.87-2.18c1.6-1.95-1-6.53-1-6.53A5.72,5.72,0,0,1,56,199.42c1.49-3.62,3,.51,3,.51v-5.5s8.3-1,11-3.9-2.75-3.09-2.75-3.09A7.38,7.38,0,0,0,63.55,184,7.05,7.05,0,0,0,53.92,188.72Z"/><polygon class="cls-4" points="61.54 371.36 61.54 393.19 55.18 393.19 53.12 371.36 61.54 371.36"/><path class="cls-7" d="M55.88,392.27S44.81,398,43,400.15s13.14,1,14.37,1,4.76.16,5.1-1-.89-7-.89-7Z"/><polygon class="cls-4" points="86.81 369.64 91.8 392.26 98.5 392.26 94.37 368.61 86.81 369.64"/><path class="cls-7" d="M91.28,393.19s-.34,6.53,0,7.22,17,1.79,18.22,1.06-10.82-9.77-11-10S91.38,391,91.28,393.19Z"/><path class="cls-4" d="M102.76,224s3.35-7.64,3.46-8.33a4.62,4.62,0,0,0-1.73-3.66c-1.36-1-2.28-1.72-2.45-1s2.47,2.75,2.47,2.75l-.37.63s-3.87-2.12-4.73-1.77,3,2.35,3,2.35-3.44-1.61-3.79-.81,3.38,2.12,3.38,2.12-3.19-.05-3.4.52,2.72.9,2.72.9-1.3,2.43-1.11,4.06S102.76,224,102.76,224Z"/><path class="cls-7" d="M13.82,261.69l24.61,8.48S34.1,296.53,23,296.87,7.28,285.87,13.82,261.69Z"/></g></g></svg>