<svg xmlns="http://www.w3.org/2000/svg" viewBox="0 0 601 526.66"><defs><style>.cls-1{fill:#98e7f4;}.cls-2{fill:#bdf3ff;}.cls-14,.cls-3,.cls-30,.cls-4,.cls-7{fill:none;}.cls-3,.cls-4{stroke:#fff;}.cls-14,.cls-3,.cls-30,.cls-4{stroke-linecap:round;stroke-linejoin:round;}.cls-3{stroke-width:2.15px;}.cls-4{stroke-width:1.14px;}.cls-5,.cls-6{fill:#ace2f9;}.cls-5{opacity:0.3;}.cls-6{opacity:0.5;}.cls-7{stroke:#98e7f4;stroke-miterlimit:10;stroke-width:0.64px;}.cls-8{fill:#00347f;}.cls-9{fill:#8abfff;}.cls-10,.cls-15{fill:#165e99;}.cls-11{fill:#083249;}.cls-12{fill:#fff;}.cls-13{fill:#7cd4f7;}.cls-14{stroke:#7cd4f7;stroke-width:1px;}.cls-15{font-size:17.52px;font-family:Montserrat-MediumItalic, Montserrat;font-weight:500;font-style:italic;letter-spacing:0.05em;}.cls-16{letter-spacing:0.03em;}.cls-17{letter-spacing:0.05em;}.cls-18{fill:#4832b7;}.cls-19{fill:#cc7264;}.cls-20{fill:#0d053d;}.cls-21{fill:#318fff;}.cls-22{fill:#006bff;}.cls-23{fill:#db8976;}.cls-24{fill:#27255e;}.cls-25{fill:#e8a38c;}.cls-26{fill:#ff8b6c;}.cls-27{fill:#1884ef;}.cls-28{fill:#f9765d;}.cls-29{fill:#e48873;}.cls-30{stroke:#0d476d;}</style></defs><g id="Layer_2" data-name="Layer 2"><g id="OBJECTS"><path class="cls-1" d="M279,389.71c-.42-10.36-3.12-20.86-9.27-29.2-1.9-2.57-5.41-5.09-8-3.19a6,6,0,0,0-1.85,2.95c-3.15,8.76-2.38,18.44-.58,27.57.25,1.27.52,2.53.8,3.8-4.69-11.28-11.38-21.92-18.69-31.73-3.23-4.35-6.74-8.72-11.54-11.24-2.45-1.28-5.51-2-7.94-.67-3.56,2-3.73,7-2.95,11,3.7,18.88,17.58,33.32,29.2,49-11.47-10.79-27.81-26.57-41.34-23.12-.66.17-10.94,4.77-2.72,13.66,9.78,10.56,37.63,20.33,43.59,34.69-19-11.35-27.14-11.25-35.67-10.17-6.58.83-15.68,9.75-9.73,16.23,4.12,4.49,11,4.91,17.07,4.26,6.61-.72,13.13-2.33,19.78-2.51s13.71,1.27,18.55,5.83l18-26.28C277.71,410.39,279.42,400.07,279,389.71Z"/><path class="cls-1" d="M574.92,455.7c-13.95-14.45-44.58,4.94-59.48,16.85,16.27-15.13,34.81-28.4,42.88-48.77,1.71-4.3,2.56-10-1-12.91-2.43-2-6-1.83-9-.9-5.89,1.82-10.73,6-15.25,10.17-10.22,9.47-19.93,20-27.53,31.64,2.74-24.53,24-49,13.61-50.38-13.34-1.81-30.5,30.33-33.36,40.46-2.31-11.08-5.76-18.3-8.13-21.78-1.86-2.73-4.87-5.38-8.08-4.6-3.53.86-4.84,5.19-4.95,8.82-.6,19.88,15.48,37.47,14.61,57.34l17.48,32.44c6.38-4.09,14.58-4.26,22-2.67s14.37,4.75,21.63,6.93c6.64,2,25.57,4.39,31.11.22,8-6,3.89-16.54-7.51-20.2-9.32-3-21.8-6.25-53.17,2.54,11-14.64,35.16-14.17,50.63-21C571.63,475.37,580.89,461.88,574.92,455.7Z"/><path class="cls-2" d="M596.61,526.16H115.45c.3-1.11,2.07-3,6.86-6,10.23-6.6,42.56-.67,42.56-.67s-7.53-3-7.49-6.92,3-7.31,6.52-8.93,7.59-1.72,11.49-1.5a72.91,72.91,0,0,1,23.1,5.18,6.7,6.7,0,1,1,7.76-10.89c-5-6.72-16.62-40.59,7-53.73,29.59-16.47,56,1.14,60.82,11,2.43-9.72,13.58-17.14,20.94-18.91,35.08-8.44,60.71,21.7,61,22.21.33-.51.69-1,1.06-1.54,3.68-4.88,11.09-13.69,16.64-16.28,15.66-7.31,26.56-8.56,43.34-4.39,7.35,1.82,18.52,9.19,20.95,18.91,4.78-9.9,27.25-23.45,56.83-7,23.6,13.14,15.93,43,10.95,49.68a6.7,6.7,0,1,1,7.77,10.89,72.85,72.85,0,0,1,23.1-5.18c3.89-.22,7.92-.1,11.48,1.5s6.48,5,6.52,8.93-7.49,6.92-7.49,6.92,32.33-5.93,42.57.67C594.53,523.19,596.31,525.05,596.61,526.16Z"/><path class="cls-2" d="M483.67,508.94s31.52-49.24,50-22.42c16.12,23.44-42.24,34.83-42.24,34.83"/><path class="cls-1" d="M247.36,152a24.4,24.4,0,1,1-24.52-24.28A24.4,24.4,0,0,1,247.36,152Z"/><polyline class="cls-1" points="205.66 165.92 200.69 182.46 214.1 172.19"/><polyline class="cls-3" points="212.22 153.27 221.88 162.54 234.63 145.16"/><path class="cls-2" d="M571.65,271.14a10.41,10.41,0,1,1-10.28-10.54A10.41,10.41,0,0,1,571.65,271.14Z"/><polyline class="cls-4" points="556.65 271.44 560.7 275.47 566.27 268.15"/><path class="cls-2" d="M16.69,195a3.83,3.83,0,1,1-3.83-3.83A3.83,3.83,0,0,1,16.69,195Z"/><path class="cls-2" d="M9.25,285.29A2.34,2.34,0,1,1,6.91,283,2.34,2.34,0,0,1,9.25,285.29Z"/><path class="cls-2" d="M64.74,331.19a2.34,2.34,0,1,1-2.34-2.34A2.34,2.34,0,0,1,64.74,331.19Z"/><path class="cls-1" d="M231,249.63a3.83,3.83,0,1,1-3.82-3.83A3.82,3.82,0,0,1,231,249.63Z"/><path class="cls-2" d="M35.42,73.53a1.22,1.22,0,0,1-1.22-1.22V63.7a1.22,1.22,0,1,1,2.44,0v8.61A1.22,1.22,0,0,1,35.42,73.53Z"/><path class="cls-2" d="M39.73,69.23H31.11a1.23,1.23,0,0,1,0-2.45h8.62a1.23,1.23,0,0,1,0,2.45Z"/><path class="cls-2" d="M570.43,131.06a1.22,1.22,0,0,1-1.22-1.22v-8.61a1.23,1.23,0,0,1,2.45,0v8.61A1.22,1.22,0,0,1,570.43,131.06Z"/><path class="cls-2" d="M574.74,126.76h-8.61a1.23,1.23,0,0,1,0-2.45h8.61a1.23,1.23,0,0,1,0,2.45Z"/><path class="cls-2" d="M71.71,229.14a1.22,1.22,0,0,1-1.22-1.22V219.3a1.22,1.22,0,0,1,2.44,0v8.62A1.22,1.22,0,0,1,71.71,229.14Z"/><path class="cls-2" d="M76,224.83H67.41a1.22,1.22,0,0,1,0-2.44H76a1.22,1.22,0,0,1,0,2.44Z"/><path class="cls-2" d="M244.67,36.25A1.22,1.22,0,0,1,243.45,35V26.42a1.22,1.22,0,1,1,2.44,0V35A1.22,1.22,0,0,1,244.67,36.25Z"/><path class="cls-2" d="M249,31.94h-8.62a1.22,1.22,0,0,1,0-2.44H249a1.22,1.22,0,0,1,0,2.44Z"/><path class="cls-5" d="M552.07,330.82c-.06-.28-.12-.58-.21-.86a26.88,26.88,0,0,0-.94-3.39,29.56,29.56,0,0,0-3.51-7l3.43-3.41-8.2-8.2-.16.16-3.25,3.27A30.39,30.39,0,0,0,528,306.7v-4.84H516.37v4.84a30.39,30.39,0,0,0-11.27,4.67l-3.41-3.43-8.2,8.2,3.43,3.41a30.56,30.56,0,0,0-4.67,11.27h-4.83v11.59h4.85a30.19,30.19,0,0,0,4.65,11.27l-3.43,3.41,8.2,8.2,3.41-3.43a30,30,0,0,0,11.27,4.65v4.85H528v-4.85a30,30,0,0,0,11.27-4.65l3.25,3.27.16.16,4.93-4.93,3.27-3.27-3.27-3.25-.16-.16c.06-.08.1-.16.16-.24a30.11,30.11,0,0,0,4.5-11h4.85V330.82ZM522.17,356a19.35,19.35,0,1,1,19.35-19.35A19.35,19.35,0,0,1,522.17,356Z"/><path class="cls-6" d="M72.41,510.94c-.06-.27-.12-.58-.2-.86a26.71,26.71,0,0,0-.93-3.38,30.56,30.56,0,0,0-3.52-7l3.44-3.42L63,488.07l-.16.16-3.27,3.26a30.26,30.26,0,0,0-11.26-4.66V482H36.72v4.84a30.51,30.51,0,0,0-11.27,4.66L22,488.07l-8.2,8.19,3.44,3.42a30.62,30.62,0,0,0-4.69,11.26H7.77v11.59h4.84a29.9,29.9,0,0,0,.94,3.64H25.62a19.35,19.35,0,1,1,33.8,0h12a29.9,29.9,0,0,0,.94-3.64h4.86V510.94Z"/><path class="cls-1" d="M47.13,400.69a35.92,35.92,0,1,1,35.92-35.92A36,36,0,0,1,47.13,400.69Zm0-67.1a31.18,31.18,0,1,0,31.18,31.18A31.21,31.21,0,0,0,47.13,333.59Z"/><path class="cls-1" d="M63,373.26a8.88,8.88,0,0,0-1.76-5.74,11.42,11.42,0,0,0-4.46-3.34,42.09,42.09,0,0,0-6.23-1.95V350.64a22.44,22.44,0,0,1,5.3,1.35,3.13,3.13,0,0,0,4.08-1.71,3.19,3.19,0,0,0,0-2.48,2.88,2.88,0,0,0-1.58-1.56,28.27,28.27,0,0,0-7.78-1.74V341a3.38,3.38,0,0,0-6.75,0v3.68c-3.95.54-7,1.85-9.15,3.93a10.45,10.45,0,0,0-3.29,7.78,9,9,0,0,0,1.74,5.78,11.63,11.63,0,0,0,4.51,3.37,41.78,41.78,0,0,0,6.19,2V379a25.06,25.06,0,0,1-5.91-1.4c-.68-.26-1.34-.52-2-.83a2.86,2.86,0,0,0-1.19-.26,2.79,2.79,0,0,0-1,.19,3.22,3.22,0,0,0-1.82,1.69,3.18,3.18,0,0,0,1.55,4.16,27.59,27.59,0,0,0,2.86,1.1,31.34,31.34,0,0,0,7.49,1.44v3.53a3.38,3.38,0,0,0,6.75,0v-3.73c4-.56,7.05-1.88,9.17-3.94A10.24,10.24,0,0,0,63,373.26ZM40.54,358.89a3.78,3.78,0,0,1-1.39-3,4.53,4.53,0,0,1,1.26-3.19,6.81,6.81,0,0,1,3.35-1.81v9.64A9.57,9.57,0,0,1,40.54,358.89ZM53.84,377a7,7,0,0,1-3.33,1.66v-9.47A10,10,0,0,1,53.76,371a3.81,3.81,0,0,1,1.36,3A4.26,4.26,0,0,1,53.84,377Z"/><path class="cls-1" d="M146.73,24h-.14V18.64a11,11,0,1,0-22.07,0V24h-.18a1.92,1.92,0,0,0-1.91,1.92v15a1.91,1.91,0,0,0,1.91,1.9h22.39a1.9,1.9,0,0,0,1.9-1.9v-15A1.91,1.91,0,0,0,146.73,24Zm-18.8-5.35a7.62,7.62,0,1,1,15.24,0V24H127.93Zm9.2,14.62.93,4.54a.6.6,0,0,1-.59.72h-3.83a.59.59,0,0,1-.59-.72l.91-4.5a1.23,1.23,0,0,0-.36-1.13,2.68,2.68,0,0,1-.72-2.39,2.69,2.69,0,1,1,4.61,2.35A1.3,1.3,0,0,0,137.13,33.26Z"/><rect class="cls-7" x="107.02" y="0.32" width="57.02" height="49.75" rx="0.71"/><path class="cls-8" d="M536,3.28,539.75,19H376.46C355.1,19,334.72,36.33,331,57.69L260.46,457.48c-.18,1-.31,2-.41,3l-4.49-3.48L247.35,455s5.29,41.57,45,41.2H461.19c21.36,0,41.74-17.32,45.51-38.69L577.19,57.69a39.55,39.55,0,0,0,.52-4.38h0C585.85,5.77,536,3.28,536,3.28Z"/><path class="cls-9" d="M448.05,480.26H279.19c-21.37,0-35.63-17.32-31.86-38.69L317.82,41.78C321.59,20.41,342,3.09,363.33,3.09H532.19c21.37,0,35.63,17.32,31.87,38.69l-70.5,399.79C489.8,462.94,469.42,480.26,448.05,480.26Z"/><path class="cls-10" d="M556.35,42.55,486.2,440.39c-3.17,18-20.34,32.6-38.35,32.6H282c-18,0-30-14.6-26.85-32.6L325.25,42.55c3.26-18.47,20.87-33.44,39.34-33.44h13.28a7,7,0,0,1,7.22,5.76l2.5,13.2a6.39,6.39,0,0,0,6.55,5.22h96.6a9.91,9.91,0,0,0,8.4-5.22l7.14-13.2a10.89,10.89,0,0,1,9.25-5.76h13.28C547.28,9.11,559.61,24.08,556.35,42.55Z"/><path class="cls-10" d="M467.92,23.78H413.64a3,3,0,0,1-3.07-3.73h0A4.63,4.63,0,0,1,415,16.33h54.28a3,3,0,0,1,3.07,3.72h0A4.64,4.64,0,0,1,467.92,23.78Z"/><path class="cls-10" d="M485.59,20.05a4.65,4.65,0,0,1-4.39,3.73,3,3,0,0,1-3.06-3.73,4.63,4.63,0,0,1,4.38-3.72A3,3,0,0,1,485.59,20.05Z"/><path class="cls-11" d="M564.56,96.61l.1-.54h-2.08a5.52,5.52,0,0,0-5.22,4.43l-9.84,55.81a3.61,3.61,0,0,0,3.65,4.43h2.09l.09-.54a5.54,5.54,0,0,0,3-3.89l9.84-55.81A3.64,3.64,0,0,0,564.56,96.61Z"/><path class="cls-9" d="M553.26,160.74h0a3.62,3.62,0,0,1-3.66-4.43l9.84-55.81a5.52,5.52,0,0,1,5.22-4.43h0a3.61,3.61,0,0,1,3.65,4.43l-9.84,55.81A5.51,5.51,0,0,1,553.26,160.74Z"/><path class="cls-12" d="M481.14,325.33H299.39c-5.53,0-9.22-4.48-8.25-10l32.28-183a12.45,12.45,0,0,1,11.77-10H516.94c5.53,0,9.22,4.48,8.24,10l-32.27,183A12.46,12.46,0,0,1,481.14,325.33Z"/><path class="cls-12" d="M426.69,380.85l-3.59,20.37a4.89,4.89,0,0,1-4.82,4H333.65a4.89,4.89,0,0,1-4.82-5.74l3.33-18.9a4.89,4.89,0,0,1,4.82-4h86.13A3.63,3.63,0,0,1,426.69,380.85Z"/><path class="cls-12" d="M469.13,350.21h0a4,4,0,0,1-3.91,3.28H306.94a4,4,0,0,1-3.92-4.67h0a4,4,0,0,1,3.92-3.28H465.22A4,4,0,0,1,469.13,350.21Z"/><path class="cls-13" d="M398.42,349.91h0a2.23,2.23,0,0,1-2.19,1.84H307.4a2.24,2.24,0,0,1-2.2-2.62h0a2.24,2.24,0,0,1,2.2-1.85h88.83A2.23,2.23,0,0,1,398.42,349.91Z"/><path class="cls-14" d="M490.12,133h15.39a7.31,7.31,0,0,1,7.38,9L510.4,156"/><path class="cls-14" d="M306.48,288.5l-3,17.22a7.3,7.3,0,0,0,7.37,8.94h14.76"/><path class="cls-14" d="M329.84,156l2.47-14.08a11.17,11.17,0,0,1,10.54-9H357.6"/><path class="cls-14" d="M458.09,314.66h15.39A11.14,11.14,0,0,0,484,305.72l3-17.22"/><path d="M469.11,251.84h0v0h0Z"/><path d="M383,197.15h0v0h0Z"/><path d="M397.82,215.51v0h0v0Z"/><path d="M360.26,197.15v0h0v0Z"/><path d="M412.52,210.74v0h0v0Z"/><path d="M421.33,160.76h0v0h0Z"/><path d="M387.83,169.91v0h0v0Z"/><path d="M386.26,178.82h0v0h0Z"/><path d="M351.53,219.92h0v0h0Z"/><path d="M342.22,247.34v0l0,0Z"/><path d="M343.17,215.45h0v0h0Z"/><path d="M346.17,147c-1.88,10.65-3.73,21.21-5.59,31.78h31.76Q375.15,162.84,378,147Zm22.52,27.27H346.06c1.3-7.49,2.63-15,4-22.63h22.63C371.34,159.2,370,166.69,368.69,174.27Z"/><path d="M325.22,265.72c-1.88,10.6-3.74,21.14-5.61,31.77h31.8c1.88-10.65,3.73-21.21,5.59-31.77Zm22.56,27.11H325.15c1.33-7.51,2.66-15,4-22.63h22.63C350.46,277.76,349.13,285.27,347.78,292.83Z"/><path d="M464.93,147c-1.88,10.65-3.76,21.21-5.61,31.78H491.1c1.88-10.63,3.73-21.2,5.61-31.78Zm22.28,27.33H464.58q2-11.26,4-22.65h22.63C489.86,159.26,488.53,166.76,487.21,174.31Z"/><path d="M454.07,156.08h0v0h0Z"/><path d="M437.84,169.88h0v0h0Z"/><path d="M452.47,165.19c.55-3.12,1.08-6.1,1.61-9.11h-4.66c-.27,1.5-.53,3-.8,4.6h-4.51c.27-1.55.53-3.07.82-4.6h-4.71c-.28,1.61-.55,3.12-.84,4.69H435c-.26,1.5-.53,2.94-.79,4.48h4.42c-.29,1.62-.56,3.12-.82,4.62,1.52,0,3.07,0,4.59,0-.53,3-1.06,5.9-1.59,9h-4.57c-.29,1.55-.55,3.12-.82,4.67h4.66c-.26,1.54-.53,3-.77,4.46h4.46c-.28,1.61-.55,3.14-.81,4.69h4.62c-.27,1.48-.51,2.91-.8,4.46h4.49c1.87-10.61,3.75-21.22,5.63-31.93Zm-10,4.64c.26-1.48.5-3,.79-4.53h4.55c-.26,1.5-.55,3-.81,4.55Zm6.74,13.63h-4.58c.8-4.51,1.59-9,2.41-13.57h4.55C450.79,174.45,450,178.93,449.2,183.46Z"/><path d="M439.33,188h0v0h0Z"/><path d="M380.59,288.37h0v0Z"/><path d="M456,197.12h0v0h0Z"/><path d="M465.59,219.92h0v0h0Z"/><path d="M351.4,247.37v0h0v0Z"/><path d="M342.22,247.37h0v0Z"/><path d="M346.69,247.37h0v0h0Z"/><path d="M420.78,293v0h0v0Z"/><path d="M424.81,270.14h0v0h0Z"/><path d="M422.43,283.68c.8-4.59,1.6-9.06,2.39-13.54h-4.66c-.53,3-1.06,6-1.62,9.17H414c-.27,1.54-.53,3-.78,4.42h-4.48c-.56,3.13-1.09,6.12-1.62,9.15H398.1c-.26,1.54-.55,3.07-.81,4.61h18c.29-1.54.53-3,.82-4.57h4.59c.25-1.48.51-3,.8-4.55H426c.27-1.57.53-3.07.82-4.69Zm-5.56,4.67h-4.4c.28-1.53.55-3.05.82-4.6h4.37C417.4,285.3,417.13,286.78,416.87,288.35Z"/><path d="M379.13,192.65h0v0h0Z"/><path d="M355.55,197.12h4.68c.53-3,1.06-6,1.61-9.15h8.88c.27-1.52.52-2.95.77-4.37H348.86c-.54,3.05-1.06,6-1.61,9.09h4.54c-.27,1.55-.53,3-.78,4.4h-9c-.3,1.57-.59,3.14-.89,4.71h13.58C355,200.29,355.26,198.79,355.55,197.12Z"/><path d="M354.75,201.8h0v0h0v0Z"/><path d="M407.5,160.73v0h0v0Z"/><path d="M390.27,156.05h0v0h0Z"/><path d="M435.43,183.53h0v0h0v0h0Z"/><path d="M442.94,192.68h0v0h0Z"/><path d="M421,188v0h0v0Z"/><path d="M424.06,197.06c.26-1.43.5-2.84.77-4.32h8.92c-.52,3-1,5.94-1.59,9h4.67c-.27,1.53-.52,2.94-.78,4.43h4.51c.79-4.49,1.58-9,2.38-13.52h-4.47c.29-1.61.56-3.15.83-4.68h-4.68c.27-1.54.53-3,.78-4.47h-4.49c-.28,1.55-.53,3-.79,4.47H421l-1.6,9.06Z"/><path d="M479.52,192.7c.55-3.16,1.08-6.14,1.61-9.1H458.41c-.82,4.55-1.61,9-2.38,13.52h4.39c.25-1.46.51-2.87.78-4.49h4.46c-.53,3.05-1,6.13-1.57,9.17h-4.46c-.29,1.6-.53,3-.78,4.47h-4.48c.55-3.07,1.08-6.1,1.61-9.13h-4.64c-.8,4.49-1.59,9-2.41,13.57h-4.4c-.28,1.61-.55,3.12-.84,4.71h4.36c-.53,3.05-1.06,6-1.62,9.15h4.71c.27-1.51.53-3,.84-4.69h4.47c.19-1.15.41-2.27.61-3.42.09-.4.16-.8.22-1.22.54-3,1.07-6,1.6-9h4.46c.29-1.59.53-3,.77-4.46h4.64c-.53,3-1,5.88-1.56,8.9h4.48c.53-2.94,1-5.88,1.59-8.95h9.15c.55-3.09,1.08-6.07,1.61-9.08Zm-13.82-.09c.27-1.5.54-3,.8-4.57h4.73c-.27,1.52-.55,3.05-.82,4.59C468.84,192.61,467.27,192.61,465.7,192.61Zm8.34,4.47h-4.38c.27-1.51.53-3,.77-4.42h4.38C474.54,194.16,474.3,195.57,474,197.08Z"/><path d="M451.33,197.15v0h0v0Z"/><path d="M456.44,219.89v0h0v0Z"/><path d="M451.15,224.57v0h0v0Z"/><path d="M421.37,160.73h9.05c.29-1.63.55-3.13.83-4.7h-4.53c.27-1.5.52-2.93.8-4.48h9c.29-1.6.55-3.08.81-4.56H419.11c-.28,1.58-.55,3.09-.81,4.59H423C422.43,154.68,421.9,157.71,421.37,160.73Z"/><path d="M418.3,151.58h0v0h0Z"/><path d="M466.41,215.4c-.27,1.57-.53,3-.79,4.49h9.18l.79-4.52h4.48l.82-4.65h4.55c.27-1.55.52-3,.77-4.37h-9.09c-.26,1.49-.52,2.92-.78,4.42H471.7c-.27,1.5-.53,3-.82,4.63Z"/><path d="M471.7,210.77v0h0v0Z"/><path d="M408.16,261c-.53,3-1.06,6-1.61,9.12h4.65c.25-1.43.51-2.87.77-4.38h4.5c-.26,1.46-.51,2.92-.77,4.38h4.44c.53-3,1.05-6,1.61-9.12Z"/><path d="M420.14,270.11v0h0v0Z"/><path d="M408.16,261v0h0v0Z"/><path d="M445,156.05h0v0h0Z"/><path d="M450.19,151.58h4.68l.81-4.58H441.92c-.28,1.55-.54,3-.82,4.62h4.64c-.28,1.56-.53,3-.78,4.43h4.44C449.65,154.61,449.91,153.18,450.19,151.58Z"/><path d="M449.4,156.05v0h0v0Z"/><circle cx="344.01" cy="210.75" r="0.02" transform="translate(-52.03 287.63) rotate(-42.48)"/><path d="M341.13,201.83h0v0h0v0h0Z"/><path d="M338.7,215.42v0h0v0Z"/><path d="M344,210.74c.25-1.43.5-2.87.78-4.42h-4.47c.27-1.57.53-3,.79-4.48h-4.59l-2.4,13.58h4.59c.27-1.5.54-3,.83-4.68Z"/><path d="M342,197.06v0h0v0Z"/><path d="M339.72,183.58c-.8,4.52-1.59,9-2.38,13.48H342q1.19-6.75,2.38-13.48Z"/><path d="M390.54,283.67h13.59c.26-1.51.52-2.94.77-4.38H391.31C391.06,280.75,390.8,282.21,390.54,283.67Z"/><path d="M391.29,279.26v0h0v0Z"/><path d="M404.9,279.29h0v0h0Z"/><path d="M426.41,183.5c.55-3.11,1.08-6.1,1.61-9.12h-4.59c-.54,3-1.07,6.08-1.61,9.12Z"/><path d="M423.43,174.38v0h0v0Z"/><path d="M436.23,178.82v0h0v0Z"/><path d="M433.43,169.91c-.54,3-1.05,6-1.58,8.91h4.38q.79-4.45,1.57-8.91Z"/><path d="M479.28,220c-.28,1.56-.54,3.06-.81,4.55H483c.28-1.55.54-3,.81-4.55Z"/><path d="M472.94,255.93c-.28,1.55-.54,3.05-.81,4.54h4.57c.28-1.54.54-3,.8-4.54Z"/><path d="M404.94,279.26h4.64c.29-1.64.56-3.15.82-4.65h-4.64Z"/><path d="M410.4,274.61h0v0h0Z"/><path d="M484.06,192.67h0v0h0Z"/><path d="M489.44,188.07h-4.57c-.28,1.59-.54,3.1-.81,4.6h4.57C488.92,191,489.18,189.53,489.44,188.07Z"/><path d="M479,247.34c.29-1.63.55-3.12.82-4.65h-4.59c-.27,1.55-.55,3.1-.82,4.65Z"/><path d="M374.4,297.52c.27-1.55.54-3,.8-4.57h-4.65l-.81,4.57Z"/><path d="M370.55,293v0h0v0Z"/><path d="M384.12,293h0v0h0v0Z"/><path d="M388,297.52c.28-1.56.54-3.06.8-4.54h-4.67c-.26,1.5-.53,3-.8,4.54Z"/><path d="M398.07,292.85v0l0,0,0,0h0v0Z"/><path d="M394.19,288.5c-.26,1.49-.51,2.88-.76,4.35h4.64c.25-1.45.51-2.91.76-4.35Z"/><path d="M356.24,297.49h4.34c.27-1.55.53-3,.8-4.55H357C356.77,294.52,356.5,296,356.24,297.49Z"/><path d="M474.37,247.37h0v0h0Z"/><path d="M469.15,251.81h4.44c.27-1.57.53-3,.78-4.44h-4.44C469.66,248.88,469.4,250.35,469.15,251.81Z"/><path d="M416.56,188H421c.26-1.48.52-3,.79-4.44h-4.44Z"/><path d="M416.56,188h0v0h0Z"/><path d="M421.79,183.53h0v0h0Z"/><path d="M475.2,242.66c.25-1.46.51-2.92.78-4.44h-4.44c-.25,1.43-.51,2.87-.78,4.44Z"/><path d="M475.22,242.67l0,0h0v0h0v0Z"/><path d="M471.54,238.22v0h0v0Z"/><path d="M384.12,293c.27-1.48.53-3,.81-4.54h-4.35c-.26,1.46-.52,2.92-.8,4.55Z"/><path d="M380.59,288.37l0,0h0Z"/><path d="M454.89,151.61v0h0v0Z"/><path d="M458.49,156.05l.78-4.44h-4.38l-.78,4.44Z"/><path d="M411.22,270.14v0h0v0Z"/><path d="M410.44,274.58h4.44c.27-1.54.53-3,.78-4.44h-4.44Z"/><path d="M415.66,270.14h0v0h0Z"/><path d="M423.16,201.87h-4.53l-.77,4.37h4.53C422.66,204.72,422.91,203.29,423.16,201.87Z"/><path d="M387.17,147h-4.54l-.77,4.37h4.53C386.66,149.85,386.91,148.43,387.17,147Z"/><path d="M396.66,274.54h4.56c.53-3,1-5.89,1.55-8.8h-9.06c-.26,1.52-.52,2.95-.77,4.39h4.5C397.16,271.7,396.91,273.13,396.66,274.54Z"/><path d="M392.94,270.13h0v0h0Z"/><path d="M400.88,224.56c.26-1.49,1.34-7.62,1.59-9.05h-4.65c-.26,1.45-1.34,7.61-1.6,9.05Z"/><path d="M367.42,156.12h-13.7c-.82,4.62-1.62,9.16-2.42,13.7H365C365.82,165.21,366.62,160.69,367.42,156.12Z"/><path d="M330.41,288.37h13.7c.81-4.58,1.6-9.1,2.41-13.7h-13.7C332,279.29,331.21,283.84,330.41,288.37Z"/><path d="M485.94,156.13H472.25c-.81,4.61-1.61,9.15-2.42,13.72h13.69C484.33,165.25,485.13,160.71,485.94,156.13Z"/><path d="M473.13,229c.27-1.53.51-2.92.77-4.4h-9.06c.25-1.57.49-3.14.75-4.68H461c.28-1.66.55-3.19.81-4.69h-4.51c-.06.42-.13.82-.22,1.22-.2,1.19-.39,2.32-.59,3.42v.05c-.27,1.5-.53,3-.82,4.68h-4.49c-.24,1.44-.48,2.87-.77,4.42h4.42c-.55,3.07-1.06,6-1.61,9.13h4.48c-.26,1.57-.53,3.05-.79,4.51H443.32c.51-3,1-5.9,1.55-8.87h-4.49c-.53,3-1.06,5.93-1.57,8.87h-4.64q1.18-6.79,2.39-13.59h4.59c.55-3.14,1.06-6.13,1.62-9.2H433.7c.54-3,1.07-6,1.62-9.15h-4.69c.27-1.46.51-2.91.78-4.37H426.9c-.27,1.5-.51,2.94-.75,4.37-4.53,0-9.09,0-13.62.05-.28,1.54-.57,3.11-.88,4.66H407c-.53,3.05-1.06,6.06-1.61,9.13H401c-.27,1.5-.51,2.91-.8,4.51-4.62,0-9.15-.05-13.66-.05-.28,1.57-.53,3.14-.81,4.69H381c.27-1.51.53-3,.82-4.69h4.66c.8-4.46,1.57-8.95,2.39-13.55h8.88c.27-1.54.53-3.07.82-4.75h13.9c.27-1.43.51-2.85.8-4.42h-4.67c.29-1.57.53-3,.8-4.48H414c.29-1.64.56-3.14.84-4.71h-4.59c.26-1.44.51-2.87.79-4.42h4.64c.29-1.64.56-3.16.84-4.71h-4.68c.53-3.07,1.06-6.07,1.59-9.1h4.66c.27-1.53.51-2.94.8-4.53h4.51c.24-1.46.51-2.92.79-4.51h4.64c.27-1.59.53-3.07.8-4.6h-9c.25-1.5.47-3,.71-4.48H407.52c-.25,1.43-.49,2.87-.78,4.42h4.62c-.28,1.59-.55,3.07-.82,4.62h-9.06c.27-1.46.53-3,.82-4.62h-9.17c.27-1.46.51-2.94.77-4.42,4.53,0,9.06,0,13.6-.05.26-1.5.53-3,.81-4.62h9.15c.29-1.57.55-3,.8-4.48h-9.15c.29-1.66.55-3.12.82-4.62H391.87c-.55,3.05-1.06,6.05-1.59,9.06h4.42c-.27,1.61-.55,3.14-.82,4.66h-4.44c.27-1.54.53-3.09.8-4.64h-9c-1.64,9.22-3.23,18.3-4.86,27.49h4.39c-.55,3.1-1.06,6.08-1.59,9.09h4.69c-.29,1.54-.53,3-.8,4.46h4.47c.81-4.57,1.61-9.08,2.4-13.59h4.67c.31-1.66.57-3.18.84-4.69h4.42c.28-1.5.53-2.94.79-4.42H405c-.53,3-1,6-1.59,9.09H399.1c-.27,1.52-.53,2.91-.8,4.44h4.38c-.29,1.59-.55,3.07-.82,4.66h4.71c-.29,1.59-.53,3-.8,4.51h-4.6c-.28,1.66-.55,3.14-.81,4.71h4.57c-.24,1.43-.51,2.87-.77,4.39h-9.11c.8-4.48,1.59-8.95,2.39-13.48H393c-.53,3-1.06,6-1.59,9h-9.17l.8-4.62H378.3c.29-1.52.53-3,.8-4.46H365.53c-.27,1.52-.51,3-.77,4.37-1.51,0-3,.07-4.51.11-.27,1.51-.53,3-.82,4.67h-4.69c-.26,1.48-.53,2.94-.79,4.42h-4.42c-.27,1.52-.51,2.94-.8,4.53H344c-.29,1.54-.56,3.09-.82,4.64h9.15c-.29,1.55-.53,3-.8,4.46h9.06c-.24,1.55-.51,3.12-.77,4.69h-4.46c-.27,1.59-.54,3-.78,4.46h-4.68c.53-3.07,1.06-6.1,1.61-9.1h-9.17c.29-1.55.53-3,.79-4.49h-4.44c-.24,1.48-.51,2.94-.79,4.53h-4.62c-.82,4.64-1.62,9.15-2.43,13.77h9.06c-.27,1.48-.53,2.94-.8,4.51h-9c-1.34,7.64-2.67,15.16-4,22.67h4.62c.8-4.55,1.59-9,2.39-13.59h9.1c.27-1.5.53-3,.82-4.58h4.51c-.29,1.53-.55,3.05-.82,4.58h4.67c.53-3,1.08-6.08,1.63-9.11h4.44c-.26,1.46-.53,2.92-.79,4.49h4.46c-.29,1.61-.55,3.12-.82,4.62l-8.9,0c-.53,3-1.06,6-1.62,9.06h-4.7c.53-3,1.06-6.05,1.61-9.06h-4.44c-.55,3-1.08,6-1.64,9.17H336c-.26,1.53-.51,2.92-.77,4.45h27.42c-.28,1.59-.55,3.09-.84,4.66h4.45v0h0c-.27,1.46-.51,2.94-.8,4.51H361c-1.08,6.12-2.14,12.13-3.22,18.28h9.1c-.26,1.52-.51,2.91-.77,4.46h4.37c.27-1.48.51-3,.8-4.55h9.24c.26-1.53.53-3.05.81-4.67h4.49c.27-1.5.51-2.93.8-4.44h4.64c.53-3.05,1.06-6.07,1.61-9.1h-4.66c-.27,1.46-.51,2.87-.78,4.4H383c-.27,1.59-.53,3.09-.82,4.68h-4.46c-.27,1.53-.53,2.94-.78,4.44h-9.21c.24-1.43.51-2.89.75-4.35h4.4c.55-3.07,1.08-6.06,1.63-9.17h-4.37c.28-1.57.53-3,.79-4.49h9.17c-.28,1.53-.53,3-.77,4.38h4.44c.56-3.07,1.09-6.08,1.62-9.06l22.74,0c.24-1.43.5-2.87.77-4.44h-9.08c.28-1.59.55-3.07.81-4.66h9.07c.26-1.53.53-2.94.79-4.46h4.66c.27-1.6.53-3.08.82-4.71h-9c.27-1.44.51-2.87.8-4.44h9c.26-1.53.51-2.92.77-4.47H413c.27-1.61.53-3.07.82-4.64h9c-.27,1.46-.53,3-.8,4.55h4.4c-.27,1.53-.51,2.94-.77,4.47H421.4c-.27,1.52-.51,2.94-.8,4.51h4.33c-.26,1.59-.53,3.07-.82,4.66h-4.35c-.26,1.52-.51,2.94-.8,4.46h4.38c-.29,1.59-.55,3.08-.82,4.67h4.73c-.82,4.62-1.61,9.15-2.41,13.65h4.51c-.26,1.59-.53,3-.79,4.53h4.66c-.55,3.05-1.08,6.06-1.61,9.09h9.1c.27-1.44.51-2.88.77-4.38h9c-.27,1.46-.51,2.92-.78,4.38h4.73c.27-1.57.53-3,.8-4.51h4.44c.29-1.57.55-3.07.82-4.66h4.66c.27-1.51.53-2.94.8-4.49h4.39c.27-1.53.51-2.92.78-4.44h-4.42c.81-4.69,1.63-9.24,2.43-13.79h-4.64c.26-1.51.53-2.92.79-4.51h-9.17c.29-1.55.55-3.09.82-4.64H466c.27-1.48.51-2.92.8-4.51h4.71c.26-1.46.51-2.92.79-4.49h4.42c.29-1.61.53-3.07.82-4.68Zm-72.88-77.35h4.35c-.24,1.46-.51,2.85-.75,4.33h-4.38C399.74,154.56,400,153.14,400.25,151.66Zm-15.43,9.11h4.6l-.8,4.44H384C384.29,163.73,384.56,162.31,384.82,160.77Zm5,22.74H385.4c.28-1.59.55-3.12.81-4.67h-4.57c.51-3,1-5.87,1.57-9h4.59c.29-1.55.58-3.09.84-4.64h4.45c-.27,1.5-.53,3-.82,4.69h-4.44c-.53,3-1,5.94-1.57,8.9l4.44,0C390.41,180.39,390.15,182,389.86,183.51Zm5.52-4.69h-4.66c.27-1.43.51-2.87.78-4.37h4.66C395.89,175.9,395.63,177.36,395.38,178.82Zm20.54-13.55h4.68c-.27,1.51-.53,3-.82,4.58h-4.66C415.38,168.32,415.65,166.84,415.92,165.27Zm-6.06,9.15h4.35c-.26,1.46-.53,3-.79,4.45h-4.36C409.33,177.32,409.59,175.9,409.86,174.42Zm-4.07,22.72h4.45c-.29,1.57-.56,3.12-.82,4.66H405C405.24,200.26,405.53,198.71,405.79,197.14ZM336.4,229c.24-1.44.51-2.87.78-4.37h4.37c-.26,1.45-.51,2.91-.77,4.37Zm8.18,4.69H340c.29-1.55.57-3.1.84-4.64h4.6C345.11,230.62,344.84,232.1,344.58,233.72Zm36.77-27.36c-.24,1.43-.48,2.85-.77,4.37H385c-.29,1.59-.53,3.05-.82,4.64h-4.4c-.26,1.55-.5,3-.77,4.47H370q.76-4.44,1.59-9h4.35c.27-1.53.53-3,.78-4.44Zm-4.71-.05h-4.42c.29-1.54.54-3,.8-4.46h4.42C377.18,203.33,376.91,204.83,376.64,206.31Zm-11.86-9.21h9c-.29,1.66-.56,3.2-.84,4.73h-9C364.22,200.21,364.51,198.64,364.78,197.1ZM353.2,210.67c.26-1.46.53-2.92.79-4.4H367.5c-.25,1.5-.51,2.89-.78,4.4Zm12.68,4.84c-.24,1.43-.48,2.83-.75,4.33h-4.46c.26-1.42.51-2.85.77-4.33ZM353,238.2h-4.6c.24-1.48.51-2.89.78-4.46h4.59C353.51,235.24,353.24,236.72,353,238.2Zm.82-4.48c.26-1.55.53-3.1.81-4.64h4.45c-.29,1.54-.56,3.09-.84,4.64Zm4.92,22.71H354.3c.27-1.5.53-3,.82-4.55h4.44C359.3,253.38,359,254.89,358.74,256.43Zm9.73,22.88h-4.55c.26-1.62.53-3.1.81-4.67h4.56C369,276.19,368.76,277.74,368.47,279.31ZM376.16,261h-4.38c.25-1.43.49-2.87.78-4.42h-4.69c.29-1.63.55-3.18.82-4.7h9.06C377.22,254.93,376.69,257.91,376.16,261Zm3.27-18.25h-4.49c-.28,1.59-.55,3.07-.81,4.66h-4.67c-.28,1.57-.53,3-.79,4.45-3,0-6,0-9.06,0,.24-1.5.48-3,.73-4.49h4.59c.55-3.16,1.09-6.14,1.62-9.19h-9.07c.27-1.48.53-2.94.8-4.42h4.38c.28-1.66.55-3.16.81-4.73H359.1c.26-1.48.53-3,.79-4.42h18.24c-.54,3-1.07,6-1.62,9.13H381C380.49,236.7,380,239.64,379.43,242.71Zm11.18,13.75h-4.46c-.27,1.57-.53,3.05-.78,4.5h-4.44c1.08-6.16,2.15-12.24,3.23-18.32h4.53c-.53,3.05-1.06,6-1.61,9.2h4.35C391.14,253.34,390.88,254.84,390.61,256.46Zm5.44-4.67h-4.6c.27-1.43.51-2.87.77-4.37h4.6C396.58,248.83,396.34,250.25,396.05,251.79Zm1.63-9.17h-9c.27-1.52.51-3,.77-4.35h-4.55c.27-1.5.53-3,.8-4.51h13.52C398.72,236.72,398.21,239.64,397.68,242.62Zm21.48-18.12h-4.57c.26-1.48.53-3,.79-4.57H410.9c.26-1.53.53-3,.79-4.45h9.06C420.22,218.47,419.72,221.45,419.16,224.5Zm14.5-4.57c-.26,1.54-.53,3.09-.82,4.64h-4.59c.28-1.53.55-3,.84-4.64Zm-8.31-4.58c.27-1.52.53-3,.82-4.57h4.44c-.26,1.5-.53,3-.82,4.57Zm9.42,50.23h-4.6c.53-3,1.06-6,1.59-9.06h4.6C435.85,259.51,435.32,262.51,434.77,265.58Zm16.48,8.95h-13.5c.79-4.46,1.59-8.92,2.39-13.48h13.48C452.82,265.58,452,270,451.25,274.53Zm9.9-4.48h-4.33l1.61-9.06h4.31C462.21,264,461.68,267,461.15,270.05Zm-1.24-18.26c-.26,1.59-.53,3.08-.81,4.64H450c.26-1.5.53-3,.79-4.55h-9.1c-.27,1.48-.53,3-.82,4.6H436.4c.27-1.5.53-3,.82-4.64h-9.11c.53-3.1,1.06-6.06,1.62-9.15h4.39c-.26,1.52-.55,3.07-.81,4.6H438c.29-1.6.56-3.1.82-4.6h4.44c-.26,1.52-.55,3.07-.81,4.68h13.61c-.27,1.44-.51,2.88-.8,4.42Zm.25-27.16h4.64c-.29,1.48-.6,3-.89,4.45-1.5,0-3,0-4.55,0C459.63,227.57,459.87,226.16,460.16,224.63Zm7.42,9h-4.44c.27-1.5.53-3,.82-4.55h4.42C468.11,230.64,467.85,232.13,467.58,233.67Z"/><path d="M438.22,297.51c.28-1.56.54-3.06.82-4.64h-4.61c.26-1.52.52-2.95.77-4.37h-4.49c-.26,1.49-.51,2.89-.78,4.45h-9.15q-.4,2.3-.81,4.56Z"/><path d="M448.79,288.47h0v0Z"/><path d="M468.72,279.32h-4.38l-.78,4.38h9c.54-3.08,1.07-6.06,1.59-9.05h-4.62C469.27,276.21,469,277.71,468.72,279.32Z"/><path d="M448.79,288.47l0,0h0Z"/><path d="M440.74,283.76c-.27,1.53-.54,3.06-.82,4.68h8.88c.28-1.56.57-3.12.85-4.68Z"/><path d="M449.65,283.76h0v0h0Z"/><path d="M440.72,283.73v0h0v0Z"/><path d="M442.85,297.49h4.37c.28-1.59.54-3.09.81-4.6h-4.37C443.37,294.52,443.11,296,442.85,297.49Z"/><path d="M466.62,292.86h-4.79c.27-1.54.53-3,.78-4.39l.84-4.8h-4.7l-.85,4.8h-9.08c-.25,1.47-.51,2.93-.76,4.39h9.18c-.29,1.66-.55,3.16-.81,4.63h13.75c.26-1.52.52-3,.79-4.51l0-.12.79-4.48h-4.37C467.13,290,466.88,291.43,466.62,292.86Z"/><path d="M448,292.89h0v0h0Z"/><path d="M443.21,270.08h4.34c.27-1.52.52-2.92.77-4.36H444C443.72,267.21,443.46,268.64,443.21,270.08Z"/><text class="cls-15" transform="translate(351.37 396.78)">S<tspan class="cls-16" x="11.75" y="0">C</tspan><tspan class="cls-17" x="25" y="0">AN</tspan></text><path class="cls-18" d="M131.43,113.51s-2.54-13.89-15.59-11.17c-9.22,1.93-13.9,11.73-9,19.87,5.73,9.47,17.23,5.18,17.23,5.18"/><path class="cls-18" d="M116.09,123.83a6.52,6.52,0,0,0-2,3,18.58,18.58,0,0,0-1.18,3.56,14.63,14.63,0,0,0,1,7.56c1.65,4.63,4.52,10.69,9.64,12.21a.19.19,0,0,0,.1-.36c-4.86-1.52-7.62-7.32-9.22-11.75a16.59,16.59,0,0,1-1.19-6.42,12.91,12.91,0,0,1,1-3.9c.43-1.14,1-2.89,2.06-3.6.2-.12,0-.44-.18-.31Z"/><path class="cls-19" d="M184.33,243.77l-3.52,11.59c-4.43,0-12.37-12-13-14-4.72-14.18,1.85-21.52,1.85-21.52L184.1,213Z"/><path class="cls-20" d="M137.86,339.25c2.55,5,13.46,59.61,16.22,66.24.39,1,5.67,5.71,7,7.24a12,12,0,0,0,1.89,1.83c8.62,7.12,19.7-2,19.94-11.59v-.18c.21-17.15-1.45-57.16-4.13-87.25-1.14-12.69-3.63-23.75-4.33-30.37l-42.28-9.79C111.65,318.86,132.94,329.64,137.86,339.25Z"/><path class="cls-21" d="M100,501.58s-10.3-.06-11.79-7.87a20.55,20.55,0,0,0-7.46,7.52,3.35,3.35,0,0,0-.11,3.08A77.51,77.51,0,0,1,85,515.24c1.6,5.57,9.54,10.81,17.33,10.92H114s6.09-1.29-6.18-9.11C102.4,513.6,100,501.58,100,501.58Z"/><path class="cls-21" d="M167.87,511.81s2.65,1.69,9.26,1.18a48.92,48.92,0,0,0,6.36-1.18s26.07,9.84,26.2,12.25-3.18,2.08-3.18,2.08l-39.43,0S162.2,519.87,167.87,511.81Z"/><path class="cls-20" d="M154.08,439.18c1.86,15,8.84,39.15,11,53.87A157.26,157.26,0,0,1,167,513.22s11,1.15,16.49-1.41c0,0-.23-89.71-.62-108.84-.06-1.62-.12-2.73-.21-3.27-1.26-7.45-14.44-.91-21.23,3-2.4,1.35-7,1.91-7,1.91s-.06.51-.18,1.41A134,134,0,0,0,154.08,439.18Z"/><path class="cls-20" d="M130.41,400.8c-2.08,8.38-30.27-.27-29.41-7.74,1-8.53,0-29.56,0-52.06,0-5.28.52-24.06.79-27.19a55.34,55.34,0,0,1,5.35-20.35c2.66-5.81,3.81-9.06,3.81-9.06l36.66-2.15S146.17,311.75,142,341A589.23,589.23,0,0,1,130.41,400.8Z"/><path class="cls-20" d="M103.45,388.45s-6.32,6.88-8.76,21.14c-1.81,10.59-3.45,39.58-6.19,62.26-1.66,13.67-3.77,24.45-3.77,24.45s8.12,6.53,15.3,5.28c0,0,29-90.77,31.24-104.26C133,387.24,103.45,388.45,103.45,388.45Z"/><path class="cls-21" d="M174,273.2s2.23,10.75,2.23,12-.43,2.48-1.13,2.64c-8.22,2.08-17.69,2.6-31.33,2.51-19.3-.13-35.22-2.24-36.26-3.66s3.13-11.16,3.8-13.52c0,0,4.9-13-2.11-29.77a169.24,169.24,0,0,1-6.34-19c-4.72-17.1-8-37-4.2-43.16,5.16-8.37,14.6-9.44,19.14-9.06l38.68,2.38s12.06.67,16.28,7.53c2.22,3.62,7.63,17.23,11.4,33-6.84,2.37-14.55,5.12-14.55,5.12l.45,18.2s.82,12.2,1.86,19.46C172.44,261.76,174,273.2,174,273.2Z"/><path class="cls-22" d="M116.83,129.54c-2.09.68-2.64-1.68-2.64-1.68s-1.26-4.94,2.93-12.06c4.67-7.94,11-9.38,11-9.38s1.81-.52,1.86,1.29"/><path class="cls-23" d="M173.93,205.68s-1.2,37.65,1.24,44.32c4.05,11.12,16.36,8.42,17.83-2.28,1.87-13.54-13.27-44.26-13.27-44.26"/><path class="cls-24" d="M177.52,225H161.71l10-28.12a2.33,2.33,0,0,1,2.2-1.56h12.49a1.17,1.17,0,0,1,1.11,1.57Z"/><polygon class="cls-24" points="187.26 195.74 188.78 197.3 187.32 197.37 187.26 195.74"/><path class="cls-20" d="M179.07,226.62H163.26l10-28.13a2.33,2.33,0,0,1,2.2-1.55h12.49a1.17,1.17,0,0,1,1.11,1.57Z"/><path class="cls-25" d="M164.49,218.59a23.12,23.12,0,0,0,2.91-3.6c1.24-2.12,1.7-4.89,0-5.48s-1.85,3-5.74,5.58c-2,1.33-5.28,8.17-5.28,8.17l-.37,2.58"/><path class="cls-25" d="M117.78,172.26c8.83,18.2,23.1,18.85,23.1,18.85,17.13,1.82,15.57-16.48,15.57-16.48l-4.77-1.07a7.71,7.71,0,0,1-5.92-6.6c0-.24,0-.47-.08-.71a61.56,61.56,0,0,1-.16-9.15c.08-1.47.17-2.41.17-2.41l1.42-12s-26.22-18.43-20.78-1.75a67.46,67.46,0,0,1,3.29,21.29,9.87,9.87,0,0,1-9.09,9.8Z"/><path class="cls-23" d="M145.68,166.25a61.56,61.56,0,0,1-.16-9.15l-9.31-2.41A13.49,13.49,0,0,0,145.68,166.25Z"/><path class="cls-25" d="M161.66,122.65c1.76,9.42,1,34.72-9.36,38.74-9.53,3.71-20.7-6.72-28.51-18.23s1-27.09,11.46-29.87S159.37,110.38,161.66,122.65Z"/><path class="cls-25" d="M116.21,212.38l8.27,30.83s-9.58,5.25-18.34,5L97,218.16"/><path class="cls-26" d="M118.25,220s-6.59,4.55-18.75,6.48l-1.37-4.34,19.46-4.47Z"/><path class="cls-21" d="M121.41,200.8l3.38,15.56a94.1,94.1,0,0,1-30.23,7.29s-5.85-41.75,10.83-48.51C105.39,175.14,114.54,173.55,121.41,200.8Z"/><path class="cls-25" d="M119.78,241.36c10.57-5.49,36.65-18.1,36.65-18.1l5.84,6.08s-30.6,29.09-44.63,33.35c-7.78,2.35-13.34-20.5-13.34-20.5"/><path class="cls-25" d="M158.93,232.08c2.59-1.75,10.82-1.62,15.5-4-1.58-2.91-4.68-7.72-9.24-10.77A22.35,22.35,0,0,0,163,218c-2.46.89-2.61,2.42-4,4.41s-2.62,2.24-2.62,2.24S155.86,234.14,158.93,232.08Z"/><path class="cls-25" d="M166.55,220.28l5.74-1.16a45.2,45.2,0,0,0,5.85-3.25c2.16-1.55,1.76-2.64,0-2.43a74.29,74.29,0,0,0-7.22,2.67,24.64,24.64,0,0,1-4.94.63c-1.15-.18-.79-1.09-.79-1.09l-1.85,1-.48,1.61"/><path class="cls-25" d="M169.59,222.18l6.95-.86s5.19-2.42,6.3-2.55c1.76-.21,2.16.88,0,2.43a23.92,23.92,0,0,1-5.85,3.25c-1.39.46-5.74,1.16-5.74,1.16"/><path class="cls-25" d="M170.22,225.41l5.42-.27s4.87-1.78,5.84-1.9c1.53-.18,1.87.77,0,2.11a20.88,20.88,0,0,1-5.09,2.84c-1.21.39-6.36,1.37-6.36,1.37"/><path class="cls-25" d="M167.83,219.4l7.12-1.16,4.44-2.19s3.1-2.16,4.41-1.76c1.15.34-.36,2.34-1.89,3.62a39.09,39.09,0,0,1-5.22,3.17l-7.62,1.84"/><path class="cls-18" d="M155.67,121.53s-.36,11.5-13.1,15.61c-8.71,2.82-16.69,10.7-16.69,10.7a41,41,0,0,1-7.45-13.68c-3.27-10.8-1.43-25.63,17.4-29.15,15.61-2.92,27.77,6.06,28.69,17.86a31.52,31.52,0,0,1-2.23,13.67S163.54,125.57,155.67,121.53Z"/><path class="cls-18" d="M131.63,146.14s-2,.73-1.83,5.16a71.57,71.57,0,0,1-.19,9.36l-2.06-1.47s-2.13-3.57-5.5-10.08c-6.64-4.15-9.53-14.48-5.71-23,4.23-9.46,13.31,11.08,13.31,11.08Z"/><path class="cls-27" d="M148.54,215.16s-3.21,13.5-14.88,14.4C133.66,229.56,151.46,230.42,148.54,215.16Z"/><path class="cls-25" d="M135.69,141.53s-.48-6.43-5.88-4.67c-2.79.9-3.11,4.57-2.35,7.74s2.55,5.74,5,4.66"/><path class="cls-18" d="M155.64,121a14.61,14.61,0,0,1-8.35,15.24,23,23,0,0,1-8.8,1.62.25.25,0,0,0,0,.5c4.77.09,9.81-1,13.33-4.45a14.91,14.91,0,0,0,4.25-8.78,15.08,15.08,0,0,0,0-4.19c0-.24-.46-.18-.43.06Z"/><path class="cls-20" d="M157.65,142.51c-.11,1.08.26,2,.84,2.06s1.13-.76,1.25-1.84-.26-2-.84-2.07S157.77,141.43,157.65,142.51Z"/><path class="cls-20" d="M147.32,141.68c-.1,1.08.28,2,.85,2.06s1.13-.77,1.24-1.85-.28-2-.85-2.06S147.43,140.6,147.32,141.68Z"/><path class="cls-23" d="M153.7,145.6c.07.79.28,1.56.34,2.36a2,2,0,0,1-.63,2,3.07,3.07,0,0,1-1.69.32.12.12,0,0,0,0,.23,2.29,2.29,0,0,0,2.4-1,4.19,4.19,0,0,0,0-2.43c-.09-.48-.19-.95-.24-1.43,0-.14-.22-.14-.21,0Z"/><path class="cls-20" d="M157.56,139.59c.35-.6,1.42-1.44,2.1-.84a1.85,1.85,0,0,1,.48.89.14.14,0,0,0,.27-.08,1.48,1.48,0,0,0-1.14-1.31,1.85,1.85,0,0,0-1.4.56,2.37,2.37,0,0,0-.53.65.13.13,0,1,0,.22.13Z"/><path class="cls-20" d="M147.21,138.85a2.48,2.48,0,0,1,1-.92,1.06,1.06,0,0,1,1.16,0,1.77,1.77,0,0,1,.5.88.14.14,0,0,0,.27-.07,1.45,1.45,0,0,0-1.17-1.28,2,2,0,0,0-1.43.62,2.61,2.61,0,0,0-.53.67.13.13,0,1,0,.22.13Z"/><path class="cls-28" d="M152.89,155.09a11.49,11.49,0,0,1-4-.83.17.17,0,0,0-.13.31,8.25,8.25,0,0,0,1.93.64,7.48,7.48,0,0,0,2.16.2c.2,0,.21-.32,0-.32Z"/><path class="cls-23" d="M132.42,140.07a2.8,2.8,0,0,1,.7,2.26,2.56,2.56,0,0,1-.34,1.35,5.58,5.58,0,0,1-.89,1c-.11.11,0,.31.17.22a3.38,3.38,0,0,0,1-1,2.9,2.9,0,0,0,.37-1.47,3.09,3.09,0,0,0-.85-2.47c-.12-.1-.29.07-.17.17Z"/><path class="cls-23" d="M131.1,141.39a2.08,2.08,0,0,1,1.73,1.43,4.84,4.84,0,0,1,.18.49c.05.15.31.14.29,0a2.87,2.87,0,0,0-.41-1.1,2.53,2.53,0,0,0-1-.93,1.83,1.83,0,0,0-.8-.17.16.16,0,0,0,0,.31Z"/><path class="cls-29" d="M142,145.05c-.15.94.82,1.87,2.17,2.08s2.56-.37,2.71-1.3-.82-1.87-2.17-2.08S142.13,144.12,142,145.05Z"/><path class="cls-29" d="M157.18,147c-.11.64.56,1.28,1.48,1.42s1.75-.25,1.85-.89-.56-1.28-1.48-1.42S157.28,146.4,157.18,147Z"/><line class="cls-30" x1="0.5" y1="526.16" x2="600.5" y2="526.16"/></g></g></svg>